<?xml version="1.0" encoding="UTF-8" standalone="no"?>
<svg
   xmlns:dc="http://purl.org/dc/elements/1.1/"
   xmlns:cc="http://creativecommons.org/ns#"
   xmlns:rdf="http://www.w3.org/1999/02/22-rdf-syntax-ns#"
   xmlns:svg="http://www.w3.org/2000/svg"
   xmlns="http://www.w3.org/2000/svg"
   xmlns:sodipodi="http://sodipodi.sourceforge.net/DTD/sodipodi-0.dtd"
   xmlns:inkscape="http://www.inkscape.org/namespaces/inkscape"
   width="125.9715mm"
   height="125.98364mm"
   viewBox="0 0 125.9715 125.98364"
   version="1.1"
   id="svg8"
   inkscape:version="1.0.2 (1.0.2+r75+1)"
   sodipodi:docname="contact-illustration.svg">
  <defs
     id="defs2" />
  <sodipodi:namedview
     id="base"
     pagecolor="#ffffff"
     bordercolor="#666666"
     borderopacity="1.0"
     inkscape:pageopacity="0.0"
     inkscape:pageshadow="2"
     inkscape:zoom="0.60079424"
     inkscape:cx="472.04322"
     inkscape:cy="270.12397"
     inkscape:document-units="mm"
     inkscape:current-layer="layer1"
     inkscape:document-rotation="0"
     showgrid="false"
     fit-margin-top="0"
     fit-margin-left="0"
     fit-margin-right="0"
     fit-margin-bottom="0"
     inkscape:window-width="1600"
     inkscape:window-height="800"
     inkscape:window-x="0"
     inkscape:window-y="0"
     inkscape:window-maximized="1" />
  <metadata
     id="metadata5">
    <rdf:RDF>
      <cc:Work
         rdf:about="">
        <dc:format>image/svg+xml</dc:format>
        <dc:type
           rdf:resource="http://purl.org/dc/dcmitype/StillImage" />
        <dc:title />
      </cc:Work>
    </rdf:RDF>
  </metadata>
  <g
     inkscape:label="Capa 1"
     inkscape:groupmode="layer"
     id="layer1"
     transform="translate(-24.680376,-61.564146)">
    <path
       style="fill:#282526;stroke:none;stroke-width:0.264583;fill-opacity:0.66822898"
       d="m 127.63313,61.564146 c 0.70009,1.233488 2.08994,1.649678 3.43958,1.852084 -0.72522,-1.182423 -2.11904,-1.624806 -3.43958,-1.852084 m 4.49792,2.116667 c 3.18876,5.5118 11.96128,4.834996 15.61041,9.789584 l -5.55625,1.984375 -7.67291,1.719791 c -0.99669,-3.210983 -2.12937,-6.73047 -3.3917,-9.834562 -0.51461,-1.264973 -0.42121,-2.420673 -1.89997,-2.865438 -0.9107,2.799821 -1.55681,5.668434 -2.46856,8.466667 -0.42122,1.29249 -1.20941,3.130286 -0.83106,4.497653 0.34952,1.26391 1.60655,2.06401 2.50587,2.921 2.28388,2.1762 4.6191,4.21322 7.14375,6.102882 1.61026,1.20518 5.46179,5.3885 7.64514,4.57094 1.41525,-0.52996 2.03782,-3.04086 2.43972,-4.33414 1.30254,-4.191532 2.93873,-8.641562 3.67347,-12.964585 l 1.32292,-0.79375 -1.32292,0.264584 c -0.61436,-1.713707 -2.69451,-2.457186 -4.23333,-3.239559 -3.93594,-2.000779 -8.61563,-5.510213 -12.96458,-6.285442 m -2.38125,5.027084 c 0.35719,2.651919 1.07976,8.080636 3.71554,9.477636 1.15993,0.61463 2.74796,0.1704 3.95737,-0.0714 3.4724,-0.69454 6.45875,-2.458512 9.78959,-3.585373 l -2.77442,8.731253 -1.45892,6.085412 c -3.64093,-2.10211 -7.00828,-5.243512 -10.31875,-7.847802 -1.47267,-1.15861 -3.66421,-2.58763 -4.4868,-4.32303 -0.74427,-1.570831 0.52626,-7.132108 1.57639,-8.466666 m -76.200002,5.55625 c -0.44688,2.271976 -1.21656,4.353986 -0.26459,6.614586 -2.08094,1.21602 -0.26246,3.70072 0.79375,2.11666 l 1.05834,0.26459 c -3.50679,2.088882 1.42822,4.130142 1.32292,1.32291 4.29577,1.172112 6.22961,1.043262 9.78958,-1.78038 0.64135,-0.50879 2.28944,-0.90434 2.55429,-1.72773 0.27622,-0.85804 -1.0467,-1.47452 -1.41314,-2.10343 -1.78541,-3.064673 -2.94191,-5.431106 -6.96198,-3.648873 l 0.26458,1.058333 c 0.78555,-0.18706 1.56845,-0.322526 2.38125,-0.235479 6.59527,0.705119 0.4908,10.203661 -2.91042,7.114649 -2.60509,0.6776 -3.73009,-1.17713 -5.29167,-2.91042 1.37293,-0.89456 -0.0217,-2.60138 0,-3.96875 l 1.85209,1.05833 v 0.26459 c -1.76107,1.8796 -0.0122,4.59819 2.37622,4.69794 1.57771,0.0659 1.05913,-1.1348 0.005,-1.52294 l 0.26458,-1.32292 h 0.26459 l 1.5875,1.05833 c -0.22331,-1.48299 -2.54529,-7.599094 -4.23334,-5.027079 l -3.43958,-1.322917 m 4.93898,3.086896 -0.0884,0.17621 0.0884,-0.17621 m 5.11519,0.88185 -0.26459,1.32292 1.32292,-0.26458 -0.52917,-1.05834 h -0.52916 m 3.96875,2.11667 v 0.52917 h -0.52917 v -0.52917 h 0.52917 m -14.02292,1.05833 -0.52917,0.79375 0.52917,-0.79375 m 1.32292,2.99853 0.0881,0.0884 c -0.13044,0.0434 -0.29263,-0.0884 -0.0881,-0.0884 m 26.45833,8.378562 c -1.77641,-5.5335 -6.85509,0.5498 -7.9375,3.175 -5.7531,-2.42703 -9.45488,6.008955 -11.37708,10.054175 l -0.52917,-0.52917 c -5.60546,0.93239 -4.21322,5.47714 -5.4909,9.525 -0.97287,3.08187 -2.90512,5.94016 -2.97577,9.26042 -3.85815,-2.24076 -9.15617,0.009 -7.67291,5.02708 -2.86332,0.46567 -1.59332,3.18691 -1.5875,5.29167 l -5.02709,0.68236 -3.70416,-1.47611 3.43958,3.175 6.08542,0.51461 7.40833,-0.25003 -0.79375,0.52917 c 0.60034,0.94615 1.49119,1.65973 2.05052,2.64583 1.66952,2.94349 2.59556,9.48081 6.94531,9.48081 1.74467,0 4.5765,-0.91784 5.78406,-2.18281 0.64215,-0.6723 2.44687,-2.45374 0.83053,-2.80008 v -0.26462 h 2.64583 v 0.52917 c -1.75022,1.06812 -2.93793,3.62426 -4.27328,5.21705 -2.70907,3.23083 -5.74649,6.23888 -9.53003,8.1833 -11.90387,6.11717 -25.66035,-1.36207 -28.822387,-13.92952 -0.669131,-2.65959 -0.819944,-5.23901 -0.338667,-7.9375 0.265642,-1.48907 1.257829,-3.03688 1.160198,-4.49791 l 5.820836,0.79375 c -1.26365,-1.92908 -4.45691,-1.9693 -6.350002,-1.05834 -0.238919,1.70154 -1.512094,3.07631 -1.940455,4.7625 -1.051983,4.14205 -0.24765,9.10193 1.493838,12.96459 6.244169,13.85093 22.086089,18.81505 35.107029,11.37682 2.57625,-1.47162 5.12049,-3.12341 6.89849,-5.55599 0.88714,-1.21391 1.651,-2.60429 2.28018,-3.96875 1.4044,-3.04615 2.21456,-8.95165 -2.56408,-9.47129 -2.2651,-0.24633 -4.93395,2.64716 -6.96754,1.67534 -0.98795,-0.47201 -1.81822,-1.92378 -2.44343,-2.78633 -0.44979,-0.62018 -1.16469,-1.4171 -1.37398,-2.1627 -0.39581,-1.41023 1.24143,-2.16403 1.89495,-3.14034 0.7665,-1.14512 1.24195,-3.16521 1.74625,-4.4876 h 0.26458 l -0.79375,1.85209 c 1.1131,-0.57865 1.46156,-1.42558 1.5875,-2.64584 l -0.52917,0.79375 h -0.26458 c -0.0368,-1.51844 -0.55351,-2.34579 -1.5875,-3.43958 l 1.32292,0.26458 -2.64584,-1.85208 c 2.50296,-6.45107 6.49632,-8.96065 12.70001,-11.12414 1.35202,-0.47149 2.31245,-1.59544 3.70416,-1.96771 6.56643,-1.75657 13.68769,-0.66648 20.37291,-0.66648 2.69611,0 5.523182,0.24077 8.202092,-0.0754 1.50283,-0.17754 4.07088,-1.01203 5.51127,-0.53499 1.01415,0.33576 1.6936,1.46712 2.69081,1.93331 l -1.85208,-2.38125 c 3.35333,-0.694 6.59712,-2.37252 7.73906,-5.82083 0.64929,-1.96083 0.56118,-4.42833 -1.38906,-5.556255 0.18018,1.060185 0.69373,2.090215 0.70273,3.175005 0.0397,4.77758 -4.14946,6.24681 -7.84648,7.67292 l -1.5875,-3.43959 h -0.26459 l 1.5875,3.43959 c -11.620762,2.15741 -23.702702,-1.64915 -35.189572,1.32291 l -0.79375,-0.79375 v -0.26458 c 3.34301,-0.42466 7.61206,-0.79878 10.29413,-3.05038 2.73421,-2.29579 2.28706,-5.40703 -1.03372,-6.21004 4.06876,-1.23666 10.02056,-2.385225 11.84671,-6.879175 0.81386,-2.00263 -0.18229,-4.46749 -2.5863,-4.39737 -3.61579,0.1053 -6.75296,0.54134 -10.05416,2.28071 m 63.235412,0.26458 c -1.28322,5.38956 5.47582,10.486235 -0.26564,14.842335 -0.65219,0.49504 -1.34223,0.91837 -2.11561,1.1946 -1.202,0.42915 -2.44819,0.36724 -3.70416,0.36724 0.37809,-1.19036 0.77893,-2.44158 0.77285,-3.70417 -0.0378,-7.846755 -13.39771,-5.41867 -9.07733,1.85209 0.50377,0.84772 1.17634,1.58353 1.95845,2.1799 0.9689,0.73898 1.97194,1.30783 3.17103,1.52426 -5.10805,7.44961 -14.43461,6.72333 -21.69584,3.70417 v 0.26458 c 5.60785,3.27687 12.26715,3.98013 18.25625,0.98531 1.94046,-0.97049 3.35069,-3.03662 5.29167,-3.86477 2.38575,-1.01812 5.31098,0.15531 7.9375,-1.18824 8.21267,-4.20132 4.06136,-12.973055 -0.52917,-18.157305 m -54.239582,0.79375 c -2.38125,4.41563 -9.02811,3.81397 -12.69894,6.04758 -4.14469,2.522015 0.70406,4.599525 3.17395,5.064925 v 0.26458 c -2.33231,1.19169 -5.34618,1.9521 -7.9375,2.32569 -2.42967,0.35031 -4.92893,0.0257 -6.61459,2.17223 1.18031,0.22463 1.58459,1.37134 2.11667,2.38125 l -8.99584,5.29167 c 3.64173,-8.60346 12.74366,-16.09381 20.90209,-20.173695 3.29114,-1.64571 6.2812,-3.29591 10.05416,-3.37423 m -14.81666,1.05833 v 0.52917 h -0.52917 l 0.52917,-0.52917 m -2.64583,1.05834 -0.26459,0.26458 0.26459,-0.26458 m 35.718742,3.96875 -0.79375,1.322915 0.79375,-1.322915 m -42.068742,1.322915 -0.26459,0.79375 h -0.26458 l 0.52917,-0.79375 m 3.70416,1.32292 0.26461,0.79374 c -4.63338,1.71873 -8.07429,7.12153 -10.659,11.1125 -1.01203,1.56263 -1.54411,3.93594 -3.09933,5.02709 0.45349,-2.54239 2.25875,-5.10832 3.77163,-7.14375 2.77337,-3.73116 5.352,-7.79648 9.72212,-9.78959 m 66.675002,6.61459 c -0.90752,-0.29581 -1.83436,-0.576 -2.64557,-1.09353 -0.55483,-0.35401 -1.06839,-0.78581 -1.48352,-1.29831 -3.26946,-4.03675 4.83658,-5.58191 4.83103,0.0106 -0.001,0.86201 -0.32438,1.62877 -0.70194,2.38125 m -55.562502,-4.49792 -0.26458,0.26458 0.26458,-0.26458 m 25.488102,0.97023 0.0884,0.17621 -0.0884,-0.17621 m -24.958932,35.27769 c -3.09907,0.8927 -7.13026,3.69517 -7.6798,7.14375 -0.21511,1.34884 0.71411,2.31854 0.27146,3.70416 10.8585,6.33783 24.26811,11.29242 37.041672,9.14533 2.15794,-0.36275 4.21322,-0.96335 6.08541,-2.1254 1.02659,-0.63712 1.95369,-1.88251 3.175,-2.11799 3.61342,-0.69665 7.42315,1.18295 11.1125,-0.40402 v -0.26458 h -11.1125 c 1.8161,-3.55389 2.19287,-10.49999 -1.05833,-13.49375 -0.74216,4.45902 4.32065,9.73931 -0.52917,13.49375 l 0.26459,-1.05834 c -5.46788,3.02631 -11.73877,2.9599 -17.72709,2.91042 l 0.52917,-0.79375 c -1.90712,-0.75353 -3.894142,-0.71094 -5.820832,-1.34673 -4.82627,-1.592 -9.99199,-4.30265 -14.2875,-6.99294 -0.99933,-0.62574 -2.89798,-0.95805 -3.68009,-1.68619 -1.31075,-1.22025 3.67162,-3.03292 4.73842,-2.67414 2.11323,-2.79929 2.49185,-5.88672 0.26458,-8.99583 v -0.2646 l 0.79375,-1.85208 -0.52916,1.5875 h -0.52917 c 0.25638,-1.41605 0.95938,-2.34024 2.11667,-3.175 l -0.79375,1.5875 h 0.26458 c 1.95712,-2.218 5.8465,-0.15769 8.4664,-1.4097 4.82256,-2.30426 3.11124,-9.85785 3.17527,-13.93613 l -1.05834,-0.26459 v -0.26458 c 5.173402,0.92207 8.902702,5.60573 12.964592,8.46667 -1.80129,-3.92986 -6.46007,-6.15977 -9.789592,-8.59235 -1.40017,-1.02261 -3.37185,-2.55323 -4.91622,-0.87233 -1.46262,1.592 -2.34209,5.50069 -2.73553,7.61259 -0.18653,1.00145 -0.21219,3.04562 -0.97181,3.77243 -1.43457,1.3724 -4.3442,-0.73977 -6.1931,-0.16007 -5.64833,1.77059 -2.853,9.4525 -1.85208,13.32098 m 13.22916,-23.98898 c 0.20452,0 0.0423,0.13176 -0.0881,0.0884 l 0.0881,-0.0884 m -40.21667,3.88064 -0.26458,0.26459 0.26458,-0.26459 m 38.89375,1.32292 c 0.21987,1.02076 0.0537,1.88436 -0.0651,2.91042 -0.11827,1.02076 0.0786,2.77944 -0.62363,3.58933 -2.6027,3.0017 -9.27232,-1.95686 -11.43476,2.23547 -1.06574,2.06639 0.70882,5.48137 1.52453,7.40436 0.50059,1.17978 1.23693,2.78421 0.19579,3.88964 -0.64161,0.68157 -1.70947,1.06601 -2.56143,1.40203 0.41328,-1.30969 2.28309,-1.42134 2.25504,-2.91174 -0.063,-3.33719 -3.92667,-7.22709 -1.76371,-10.56746 2.26298,-3.49462 7.74039,0.0847 10.82146,-1.71688 1.43007,-0.83608 0.762,-4.75218 1.65179,-6.23517 m -35.18958,1.05833 c -0.26643,1.02791 -0.49133,2.32543 -1.5875,2.64584 l 1.5875,-2.64584 m 0.79375,3.96875 -0.26458,0.26459 0.26458,-0.26459 m -6.08542,0.26459 1.32292,0.26458 v 0.26458 l -1.5875,-0.26458 0.26458,-0.26458 m 56.620842,0 c 0.77523,1.66475 2.56857,3.95128 4.23333,4.7625 l -4.23333,-4.7625 m -48.330652,0.97022 0.0884,0.17622 -0.0884,-0.17622 m -8.55477,0.61728 5.55625,1.05833 v 0.79375 c -1.89733,0.27596 -2.57466,0.89429 -4.49792,0 l 0.52917,-0.79375 -1.85208,-0.79375 0.26458,-0.26458 m 8.73125,0 0.52917,0.79375 v -0.79375 h -0.52917 m 37.57083,7.67291 c 0.909382,2.74717 3.599132,3.89837 5.556252,5.82163 0.76068,0.74771 1.72323,2.0111 2.91042,1.98173 1.80975,-0.0445 4.97126,-3.42424 5.82083,-4.89294 l -2.11666,0.79375 -2.91042,-4.7625 3.175,-1.5875 0.79375,0.52917 c -0.091,-1.20015 -0.62627,-1.80261 -1.43642,-2.66568 -5.3004,-5.64595 -7.18185,3.03556 -11.792752,4.78234 m -44.45,-6.35 v 0.26459 l 1.58751,0.52916 v -0.26458 l -1.58751,-0.52917 m 53.181252,4.49792 c -0.50456,-0.13758 -0.88794,-0.2577 -1.32424,-0.56833 -4.36112,-3.10567 4.90326,-4.52543 3.22078,-1.33799 -0.38947,0.73792 -1.37134,1.23507 -1.89654,1.90632 m -56.620832,-2.91042 -0.79375,-0.26458 0.79375,0.26458 m 63.235422,1.05834 0.26458,0.26458 -0.26458,-0.26458 m -58.737502,1.32291 -1.05834,-0.26458 0.79376,0.79375 v 0.26458 l -2.11667,-0.52916 0.26458,-1.05834 2.11667,0.79375 m -1.5875,-0.26458 0.26458,0.26458 -0.26458,-0.26458 m 53.445832,8.73125 c -0.97737,-2.5781 -3.21919,-5.11837 -5.82083,-6.08542 0.57626,-0.86386 1.47002,-2.30452 2.63657,-2.38283 1.68301,-0.11298 5.44354,5.2832 5.27394,6.85323 -0.10081,0.93372 -1.35229,1.34435 -2.08968,1.61502 m 8.99583,-6.87917 0.79375,1.05834 -0.79375,-1.05834 m -4.49791,0.26459 0.26458,0.26458 -0.26458,-0.26458 m -69.320842,0.26458 v 0.52917 h -1.32291 l 1.32291,-0.52917 m 4.7625,0.79375 v 0.26458 h 2.11667 l -2.11667,-0.26458 m -1.49939,0.17648 0.0884,0.17621 -0.0884,-0.17621 m 0.70564,-0.17648 0.26459,0.26458 -0.26459,-0.26458 m 3.26311,0.17648 0.0884,0.17621 -0.0884,-0.17621 m 6.79106,-0.17648 v 0.79375 h -0.26458 l 0.26458,-0.79375 m -6.35,0.26458 0.26458,0.26459 -0.26458,-0.26459 m 62.706252,0.26459 0.79375,1.32291 -0.79375,-1.32291 m -41.539582,8.73125 c -1.35678,5.02073 -5.8629,11.60383 -10.84792,13.49375 l 5.34855,-5.17949 4.9702,-8.31426 h 0.52917 m -7.14375,8.73125 c -0.96891,1.97167 -3.67612,3.72057 -5.55625,4.7961 -6.07087,3.47318 -16.36633,5.05486 -21.96042,-0.29819 1.46553,-0.003 2.59398,1.16973 3.96875,1.62825 2.8665,0.9562 6.26772,1.34329 9.26042,0.94112 3.40439,-0.45746 6.41323,-1.58591 9.26042,-3.52054 1.65417,-1.12395 3.06334,-2.99826 5.02708,-3.54674 m 51.593752,1.5875 v 0.26458 l -2.11667,0.52917 2.11667,-0.79375 m -13.75834,0.26458 0.26459,0.26458 -0.26459,-0.26458 m 0.70565,0.0881 0.17621,0.0884 -0.17621,-0.0884 m 0.61727,-0.0881 v 0.52917 h 0.52917 v -0.52917 h -0.52917 m 1.32292,0 c 0.2659,1.24063 1.93384,0.75062 2.91041,0.52917 v -0.26459 l -2.91041,-0.26458 m 13.22916,0 c -1.1385,1.97035 -5.77532,3.03292 -7.9375,3.18161 -6.88022,0.47229 -12.716402,-0.09 -19.314582,-2.12328 l 0.26458,-0.79375 3.96875,0.79375 v 0.79375 l 9.525002,1.32292 7.40834,-1.05833 4.7625,-2.11667 h 1.32291 m -9.78958,0.26458 0.52917,0.52917 -0.52917,-0.52917 m 0.97023,0.0881 0.17621,0.0884 -0.17621,-0.0884 m -16.051482,0.52917 0.0881,0.0884 c -0.13044,0.0434 -0.29263,-0.0884 -0.0881,-0.0884 m -35.45416,0.97022 v 0.26459 l -2.11667,0.79375 2.11667,-1.05834 m 66.145832,1.05834 v 0.52917 l 11.37708,0.52917 h 7.40833 c -0.98927,-1.40017 -3.0353,-0.53684 -4.49791,-0.72893 -4.57491,-0.6006 -9.67873,-0.83052 -14.2875,-0.3294 m 19.31458,0.52916 0.79375,0.52917 -0.79375,-0.52917 m -68.262502,2.91042 v 0.52917 l 3.96875,-1.05834 c -1.54331,1.1557 -3.10012,1.78991 -5.02708,1.5875 0.40931,2.56435 4.57306,0.8517 5.62319,-0.58949 0.85619,-1.17475 -0.15081,-2.15794 -1.39012,-1.79864 -0.4527,0.13124 -0.88689,0.35375 -1.32213,0.53288 -0.62362,0.25691 -1.24195,0.51117 -1.85261,0.79692 m -48.154165,-0.79375 v 0.26458 h 9.789585 c -1.78382,-1.55733 -7.65017,-1.06574 -9.789585,-0.26458 m 10.230645,0.0881 0.17621,0.0884 -0.17621,-0.0884 m 25.48811,2.82231 v 0.26458 c 2.94031,-0.0606 5.69806,-0.11192 8.46666,1.14115 0.96996,0.43894 2.34183,1.08188 2.44105,2.29949 0.21643,2.6551 -4.08781,4.58576 -5.29193,6.61353 -3.19088,5.37263 2.95433,10.09094 7.87797,10.30843 8.89052,0.39264 17.25162,-3.24168 26.193742,-2.61197 8.76882,0.6178 16.40285,6.24787 25.4,2.96757 6.52992,-2.38072 10.09386,-11.43715 2.64584,-15.16407 -7.04718,-3.52636 -16.99049,-2.11455 -24.60625,-2.11455 v 0.26459 c 7.81896,2.023 17.36381,-0.8517 24.60625,3.12182 4.31403,2.36696 3.49567,6.83207 0.24103,9.78614 -2.38469,2.16429 -6.37222,3.07975 -9.50145,3.16309 -9.1866,0.24448 -17.68793,-5.62663 -26.987502,-3.90022 l -3.43958,-3.96875 c 1.23825,1.08188 2.7551,3.15674 4.49791,2.91042 -0.76941,-1.48299 -2.16852,-2.84269 -3.7039,-3.55759 -0.84508,-0.39344 -2.11931,0.0601 -1.8968,1.18666 0.30004,1.51923 2.60218,2.4712 3.48404,3.69384 -6.40424,0.1323 -15.97131,5.33877 -21.68446,0.43921 -4.49897,-3.85842 0.63977,-6.2693 2.54133,-9.4353 1.27529,-2.12302 1.96982,-4.95115 -0.44741,-6.57913 -0.7165,-0.48234 -1.5584,-0.73475 -2.36988,-1.00542 -1.22766,-0.40905 -2.41908,-0.6268 -3.70416,-0.7657 -1.54914,-0.16722 -3.34381,0.33972 -4.7625,0.94218 m -26.72292,0.26458 c 1.04669,1.37504 3.02392,0.45244 4.49791,0.5752 4.22037,0.35137 10.31161,1.10517 14.2875,-0.5752 l -4.7625,-0.28734 -14.02291,0.28734 m 64.293752,-0.26458 -0.26459,2.64583 -9.260412,2.55482 -6.35,-2.55482 c 0.43153,1.11416 1.53987,4.44474 2.4204,5.06465 1.70868,1.20307 3.16495,-0.44741 4.72335,-0.95514 3.39963,-1.10755 8.624882,-3.55494 12.170832,-3.05118 l -0.26458,-0.79375 c 0.4183,-0.23204 1.40467,-1.02579 0.44,-1.38297 -1.63169,-0.60378 -3.35889,1.36842 -3.08584,-1.52744 h -0.52916 m -65.616672,0.79375 0.79375,-0.52917 -0.79375,0.52917 m 41.88063,8.98472 c -1.20861,0.54557 -2.62413,2.74955 -3.0099,3.97589 -0.29448,0.93557 0.43921,1.56898 1.34329,1.21391 1.32795,-0.52123 2.63367,-2.79823 3.02895,-4.11533 0.28205,-0.9398 -0.51355,-1.45785 -1.36234,-1.07447 m 0.18812,0.54028 v 0.52916 l -0.52916,-0.52916 h 0.52916 m -0.26458,1.05833 -1.85208,2.38125 1.32291,-2.38125 h 0.52917 m 52.916662,3.70417 c 3.4978,-2.14577 -2.81463,-3.74518 -4.48627,-3.5986 -0.82206,0.0722 -1.68381,1.0332 -0.9062,1.76292 1.37028,1.28667 3.89599,0.38232 5.39247,1.83568 m -1.05833,-2.11667 v 0.26458 l -3.70417,-0.52916 3.70417,0.26458 m -18.52083,3.70417 5.29166,-2.64584 c -1.22475,1.32583 -4.53654,1.87378 -4.23333,3.96875 0.81465,-0.3802 1.58485,-0.8374 2.38125,-1.25544 0.53446,-0.28046 1.07553,-0.54901 1.58247,-0.87868 0.84588,-0.54981 2.17329,-2.54688 0.254,-2.75247 -1.62427,-0.17409 -4.82335,2.09233 -5.27605,3.56368 m 19.31458,-3.43959 0.26458,1.05834 h -0.26458 z"
       id="path847" />
  </g>
</svg>
