<?xml version="1.0" encoding="UTF-8" standalone="no"?>
<svg
   xmlns:dc="http://purl.org/dc/elements/1.1/"
   xmlns:cc="http://creativecommons.org/ns#"
   xmlns:rdf="http://www.w3.org/1999/02/22-rdf-syntax-ns#"
   xmlns:svg="http://www.w3.org/2000/svg"
   xmlns="http://www.w3.org/2000/svg"
   xmlns:sodipodi="http://sodipodi.sourceforge.net/DTD/sodipodi-0.dtd"
   xmlns:inkscape="http://www.inkscape.org/namespaces/inkscape"
   width="104.29275mm"
   height="104.89179mm"
   viewBox="0 0 104.29275 104.89179"
   version="1.1"
   id="svg837"
   inkscape:version="1.0.2 (1.0.2+r75+1)"
   sodipodi:docname="email.svg">
  <defs
     id="defs831" />
  <sodipodi:namedview
     id="base"
     pagecolor="#ffffff"
     bordercolor="#666666"
     borderopacity="1.0"
     inkscape:pageopacity="0.0"
     inkscape:pageshadow="2"
     inkscape:zoom="0.9622"
     inkscape:cx="352.8563"
     inkscape:cy="189.28625"
     inkscape:document-units="mm"
     inkscape:current-layer="g1424"
     inkscape:document-rotation="0"
     showgrid="false"
     fit-margin-top="0"
     fit-margin-left="0"
     fit-margin-right="0"
     fit-margin-bottom="0"
     inkscape:window-width="1600"
     inkscape:window-height="800"
     inkscape:window-x="0"
     inkscape:window-y="0"
     inkscape:window-maximized="1" />
  <metadata
     id="metadata834">
    <rdf:RDF>
      <cc:Work
         rdf:about="">
        <dc:format>image/svg+xml</dc:format>
        <dc:type
           rdf:resource="http://purl.org/dc/dcmitype/StillImage" />
        <dc:title></dc:title>
      </cc:Work>
    </rdf:RDF>
  </metadata>
  <g
     inkscape:label="Capa 1"
     inkscape:groupmode="layer"
     id="layer1"
     transform="translate(-56.885437,-71.517401)">
    <g
       id="g1424"
       transform="translate(26.478288,-16.911776)">
      <path
         id="path1440"
         style="color:#000000;font-style:normal;font-variant:normal;font-weight:normal;font-stretch:normal;font-size:medium;line-height:normal;font-family:sans-serif;font-variant-ligatures:normal;font-variant-position:normal;font-variant-caps:normal;font-variant-numeric:normal;font-variant-alternates:normal;font-variant-east-asian:normal;font-feature-settings:normal;font-variation-settings:normal;text-indent:0;text-align:start;text-decoration:none;text-decoration-line:none;text-decoration-style:solid;text-decoration-color:#000000;letter-spacing:normal;word-spacing:normal;text-transform:none;writing-mode:lr-tb;direction:ltr;text-orientation:mixed;dominant-baseline:auto;baseline-shift:baseline;text-anchor:start;white-space:normal;shape-padding:0;shape-margin:0;inline-size:0;clip-rule:nonzero;display:inline;overflow:visible;visibility:visible;opacity:1;isolation:auto;mix-blend-mode:normal;color-interpolation:sRGB;color-interpolation-filters:linearRGB;solid-color:#000000;solid-opacity:1;vector-effect:none;fill:#fdfdfd;fill-opacity:1;fill-rule:nonzero;stroke:none;stroke-width:0.264583;stroke-linecap:butt;stroke-linejoin:miter;stroke-miterlimit:4;stroke-dasharray:none;stroke-dashoffset:0;stroke-opacity:1;color-rendering:auto;image-rendering:auto;shape-rendering:auto;text-rendering:auto;enable-background:accumulate;stop-color:#000000;stop-opacity:1"
         d="m 77.631729,192.9241 c -1.068576,-1.5994 -0.935313,1.54518 0,0 z m 9.789584,-0.2802 c -0.581715,-0.95711 -0.501178,1.28642 0,0 z m 5.6935,-1.40354 c -0.454918,-2.93264 3.520829,-1.11516 1.56001,0.739 3.158051,0.61336 0.187138,-4.40503 4.177855,-3.42961 4.190962,-0.70516 7.696222,-2.88966 11.545432,-5.1215 12.14135,-7.27366 20.93277,-19.88011 23.66547,-33.73952 0.24638,-5.34317 0.90856,-10.77528 0.3045,-16.09698 -0.58704,-5.29049 -2.75776,-10.03613 -4.69789,-14.7916 -3.01517,-4.51563 -5.10707,-9.30673 -8.17352,-13.77399 -3.84972,-3.57556 -9.7063,-5.092258 -12.16661,-9.989608 C 103.3865,90.57168 95.457519,90.933364 88.415097,89.89862 83.369469,88.332233 78.008986,87.979282 72.788664,88.818042 c -5.217467,0.931776 -10.113446,3.170724 -13.935447,6.887487 -7.314955,5.068541 -13.550682,11.526911 -18.769548,18.709451 -5.847994,2.06587 -6.127969,9.11451 -7.277677,14.26794 -0.748781,4.92351 -3.16314,9.54776 -2.377961,14.66576 0.851171,5.80297 4.269356,10.85739 6.470187,16.22461 2.349123,3.3732 3.548506,8.88038 7.165677,9.44924 2.113089,1.9938 -2.896539,-0.54521 -0.466196,2.2646 0.709911,3.94285 6.197734,2.52317 5.77163,5.87267 1.771945,2.28606 8.09485,2.67639 9.516646,7.02773 4.721974,2.03015 9.254451,3.79932 14.393434,4.33049 2.148534,0.17786 -2.368597,2.62022 0.519073,1.52792 3.025143,-1.25753 7.451487,2.7689 10.850992,1.28971 2.754241,0.95839 7.129606,-3.29427 8.229933,1.1916 0.620431,0.0747 0.128912,-1.38021 0.235406,-1.28689 z m -4.436729,-33.18788 c -0.111725,-4.58634 -3.298503,-4.89338 -5.220732,-4.67203 -1.340728,-0.82381 -1.673948,-4.4217 -3.096562,-2.3031 -1.483089,-3.10048 2.734322,-5.75435 1.381517,-1.25593 0.956129,1.09867 4.30705,-4.28215 4.626398,0.30628 2.101317,1.52888 1.401153,4.37752 2.696188,6.08802 4.511766,0.12952 2.838436,3.47326 -0.386809,1.83676 z m -21.114867,-3.33213 c -5.083432,-4.58302 -9.992515,-9.41124 -14.506584,-14.55704 1.154994,-3.2233 6.587783,4.76127 8.869772,6.29766 3.707128,2.5956 7.155383,9.357 11.066486,3.90678 3.353956,-3.65457 7.880802,-5.92115 11.602689,-9.04838 2.203656,-3.96872 10.003094,-5.49682 10.245714,-10.03265 -1.652044,-4.63344 -5.250435,-8.00526 -7.501637,-12.46734 -1.211378,-2.76075 -2.696162,-5.42479 -3.120841,-0.86548 -2.34939,5.98452 -3.00004,12.43007 -4.448573,18.62618 -3.172696,4.23333 -9.57488,2.70638 -14.173449,2.97507 -3.653643,-0.38127 -13.444929,0.6537 -11.440928,-5.07966 4.440976,-2.49782 8.125964,-6.10146 11.981339,-9.56631 1.790297,-1.95495 3.453931,-0.95409 3.469434,-3.38754 4.36843,-3.25057 7.694853,-8.33116 13.125268,-9.8575 2.158075,-1.18843 3.057917,-2.60421 3.101906,0.33969 3.170354,4.23256 5.768427,8.92289 8.442214,13.52158 3.609944,3.91058 3.625244,9.16485 -1.669407,11.39477 -3.393677,0.77607 0.489774,4.06117 0.934041,3.56403 1.757405,-4.36232 7.612269,4.34966 2.439654,4.46136 -3.843391,1.84956 -7.158026,-0.45513 -8.868013,-3.32313 -5.264117,4.72289 -10.926271,9.01057 -16.422934,13.4268 -1.024116,0.70554 -2.214233,0.4093 -3.126151,-0.32889 z m 26.722867,-12.43218 c -2.4661,-3.18669 1.000905,3.87058 0,0 z m -4.487572,-1.97206 c -1.236875,-2.45803 -0.518655,4.03876 0,0 z m -16.267824,-3.19983 c 2.498066,0.11501 4.763213,-0.29923 4.555448,-3.19427 1.207064,-6.50341 3.376767,-12.71919 4.994813,-19.11965 -2.630931,-1.05538 -7.801129,4.93903 -10.449876,7.65884 -5.195655,4.68701 -10.303813,9.63238 -16.091377,13.5368 5.093016,2.28264 10.946083,1.03326 16.358536,1.16018 l 0.632456,-0.0419 z m 7.95451,17.91767 c -0.175377,-1.10926 0.738697,1.13845 0,0 z m -0.641138,-1.30432 c -0.678448,-1.99154 1.193058,1.68142 0,0 z M 60.657517,187.3816 c -0.52816,-1.37538 -1.137677,1.93349 0,0 z m -3.398705,-1.72424 c -1.394886,-2.03294 -2.025056,1.16881 0,0 z m -2.38125,-1.33222 c -0.395007,-0.83613 -0.597122,0.9087 0,0 z m -2.38125,-1.32292 c -0.712412,-1.06627 -0.623516,1.03015 0,0 z m -1.322917,-1.05833 c -0.712393,-1.06625 -0.623532,1.03012 0,0 z m -1.5875,-1.45521 c -1.068609,-1.5994 -0.935282,1.5452 0,0 z m -2.767822,-2.00104 c -0.73192,-2.97147 -2.785712,0.69038 0,0 z m -2.838059,-2.96373 c -1.622063,-4.96652 -3.899074,0.78013 0,0 z m -2.860786,-3.4482 c -3.051581,-5.39484 -2.923838,0.77568 0,0 z m -3.175,-3.89015 c -0.71238,-1.06628 -0.623547,1.03012 0,0 z m -1.628119,-2.74614 c -2.644963,-3.59238 1.253819,4.12969 0,0 z m -2.149676,-5.20144 c -0.74369,-4.46594 -2.254032,-0.76269 -0.114453,1.06841 l 0.143811,-0.30355 z m -2.353458,-9.21948 c -0.96332,-4.14863 -1.46839,2.56788 0,0 z" />
      <path
         id="path1438"
         style="color:#000000;font-style:normal;font-variant:normal;font-weight:normal;font-stretch:normal;font-size:medium;line-height:normal;font-family:sans-serif;font-variant-ligatures:normal;font-variant-position:normal;font-variant-caps:normal;font-variant-numeric:normal;font-variant-alternates:normal;font-variant-east-asian:normal;font-feature-settings:normal;font-variation-settings:normal;text-indent:0;text-align:start;text-decoration:none;text-decoration-line:none;text-decoration-style:solid;text-decoration-color:#000000;letter-spacing:normal;word-spacing:normal;text-transform:none;writing-mode:lr-tb;direction:ltr;text-orientation:mixed;dominant-baseline:auto;baseline-shift:baseline;text-anchor:start;white-space:normal;shape-padding:0;shape-margin:0;inline-size:0;clip-rule:nonzero;display:inline;overflow:visible;visibility:visible;opacity:1;isolation:auto;mix-blend-mode:normal;color-interpolation:sRGB;color-interpolation-filters:linearRGB;solid-color:#000000;solid-opacity:1;vector-effect:none;fill:#2ad4ff;fill-opacity:1;fill-rule:nonzero;stroke:none;stroke-width:0.264583;stroke-linecap:butt;stroke-linejoin:miter;stroke-miterlimit:4;stroke-dasharray:none;stroke-dashoffset:0;stroke-opacity:1;color-rendering:auto;image-rendering:auto;shape-rendering:auto;text-rendering:auto;enable-background:accumulate;stop-color:#000000;stop-opacity:1"
         d="m 79.748396,173.76555 c -6.133792,-0.78586 -5.662564,-9.18607 -0.161084,-10.528 2.460578,-0.96509 8.697134,1.52509 8.076141,-2.43355 5.758966,3.00085 -2.230644,5.86633 -5.545067,4.83127 -5.764664,-1.34492 -5.522663,7.57979 0.04046,5.59286 4.961363,-1.73911 7.261898,-6.83048 11.310475,-9.70692 1.507124,-0.43687 5.95087,1.28829 5.2699,-1.48093 -2.699805,-2.82122 -6.649972,-1.6884 -9.677216,-3.82468 -2.58091,-3.17744 1.577348,-2.26337 3.172239,-0.52802 4.220668,-0.33089 11.485489,2.77975 7.121947,7.68058 -3.55821,0.67854 -7.375171,0.83525 -9.144566,5.12086 -2.800678,2.95537 -5.882077,6.6695 -10.463226,5.27653 z m 4.473499,-14.91251 c -3.131681,-2.20544 -5.630228,-5.24722 -7.347244,-8.66019 3.376505,-3.48407 3.356775,2.99619 4.77612,4.98865 0.288356,2.2099 5.426028,4.18641 4.013658,4.65021 l -0.656158,-0.44113 z m 19.317565,-4.45385 c -3.838183,-3.18052 -1.30067,-10.04414 2.29163,-12.29775 4.01137,-1.89199 -1.23233,4.92169 -1.51991,6.5391 -1.68202,6.60151 4.44756,0.81161 5.11618,-2.10583 2.93998,-4.55672 -5.67273,-10.27845 1.73991,-13.24571 -1.5109,-5.34632 -6.57987,2.85812 -9.45364,3.88597 -2.315714,1.6626 -4.71869,-1.25609 -6.01136,1.9453 -1.790846,1.06393 -6.354588,-0.3824 -1.978407,-1.08533 5.547783,-1.01738 9.929827,-4.75185 13.962827,-8.44957 5.86392,-2.25166 7.4152,6.28876 2.51342,8.11705 3.01207,3.61888 3.68675,8.75978 0.58263,12.64308 -1.98614,1.60037 -4.41667,4.76317 -7.24328,4.05369 z m -21.336103,-5.5475 c -0.883489,-1.32723 -1.258063,-3.43542 0.544953,-2.64092 1.151159,0.8717 1.048837,4.89821 -0.544953,2.64092 z m 5.747123,-3.26964 c -2.526686,-0.26249 -5.4199,-1.88919 -1.307592,-2.8992 2.664616,0.86913 4.166562,3.67158 7.5253,2.85656 -2.042264,0.45553 -4.171198,0.51967 -6.217708,0.0426 z m 12.17083,-3.06108 c 0.63366,-1.05705 0.42196,0.98399 0,0 z m -10.928916,-2.28586 c -0.177873,-1.46728 1.438215,0.40602 0,0 z m 13.456626,-0.61326 c 0.13449,-1.2248 5.33984,-0.0369 0.58865,0.0883 l -0.58865,-0.0882 z m -40.223612,-2.38086 c -2.227864,0.22451 -8.805451,-1.40461 -3.390036,-2.06058 4.81751,-0.25516 9.711207,0.20287 14.642076,0.1546 4.122235,-0.59932 4.338185,1.6612 0.337236,1.75471 -3.818496,0.59932 -7.94164,-0.10601 -11.589276,0.15127 z m -2.262587,-7.67263 c 0.949968,-5.20112 3.457517,-10.01448 5.167844,-15.02456 1.909168,-3.90742 3.104767,-10.33745 8.932244,-7.48125 2.889931,0.99412 10.523403,0.69823 9.624739,4.22654 -4.373546,-0.0845 -9.738911,-3.61163 -14.074148,-2.48398 -1.73038,4.95389 -4.222701,9.57599 -6.01184,14.47247 -0.874117,1.9815 -1.9396,6.27844 -3.638839,6.29078 z" />
      <path
         id="path1436"
         style="color:#000000;font-style:normal;font-variant:normal;font-weight:normal;font-stretch:normal;font-size:medium;line-height:normal;font-family:sans-serif;font-variant-ligatures:normal;font-variant-position:normal;font-variant-caps:normal;font-variant-numeric:normal;font-variant-alternates:normal;font-variant-east-asian:normal;font-feature-settings:normal;font-variation-settings:normal;text-indent:0;text-align:start;text-decoration:none;text-decoration-line:none;text-decoration-style:solid;text-decoration-color:#000000;letter-spacing:normal;word-spacing:normal;text-transform:none;writing-mode:lr-tb;direction:ltr;text-orientation:mixed;dominant-baseline:auto;baseline-shift:baseline;text-anchor:start;white-space:normal;shape-padding:0;shape-margin:0;inline-size:0;clip-rule:nonzero;display:inline;overflow:visible;visibility:visible;opacity:1;isolation:auto;mix-blend-mode:normal;color-interpolation:sRGB;color-interpolation-filters:linearRGB;solid-color:#000000;solid-opacity:1;vector-effect:none;fill:#9f9f9f;fill-opacity:1;fill-rule:nonzero;stroke:none;stroke-width:0.264583;stroke-linecap:butt;stroke-linejoin:miter;stroke-miterlimit:4;stroke-dasharray:none;stroke-dashoffset:0;stroke-opacity:1;color-rendering:auto;image-rendering:auto;shape-rendering:auto;text-rendering:auto;enable-background:accumulate;stop-color:#000000;stop-opacity:1"
         d="m 77.052953,193.14023 c 1.526745,-0.16683 -0.501875,0.46616 0,0 z m -4.189031,-2.86836 c -0.899808,-1.72749 1.366521,1.43526 0,0 z m 22.021438,-0.54946 c -0.623903,-1.14185 1.338753,0.98514 0,0 z m -19.68449,-0.28634 c 1.52674,-0.16684 -0.501882,0.46618 0,0 z m 27.03711,-1.92031 c 0.56719,-1.41919 0.38103,0.91552 0,0 z m 9.525,-4.87802 c 1.5947,-1.90733 0.50872,0.17766 0,0 z m -60.110027,-4.04959 c 1.526744,-0.16683 -0.501879,0.46615 0,0 z m 66.592317,-1.14218 c 1.98979,-1.92532 -1.37141,1.88485 0,0 z m -75.273958,-1.42435 c 1.391657,-0.86888 0.986247,0.46893 0,0 z m 6.278882,-0.40652 c -0.126594,-1.42591 0.641071,1.22185 0,0 z m 72.434666,-1.60871 c 1.98979,-1.92535 -1.3714,1.88486 0,0 z m -81.772902,-3.24115 c -2.464852,-2.67633 2.775808,2.65619 0,0 z m -2.266064,-9.92187 c -0.813853,-1.21365 1.609922,1.53386 0,0 z m 25.291514,-10.18646 c -3.043868,-3.00851 1.37114,0.94075 1.190091,1.21456 l -0.446458,-0.4371 z m 23.477152,-0.0662 c 0.19411,-1.53856 0.114934,1.65786 0,0 z m -5.078664,-0.13229 c -0.75778,-0.95689 1.470669,0.86661 0,0 z m -16.173334,-0.99219 c -0.813845,-1.21363 1.60993,1.53386 0,0 z m 68.846308,-0.22048 c 0.24447,-0.99026 0.11302,1.14961 0,0 z m -59.816724,-0.47472 c 1.594705,-1.90735 0.508718,0.17768 0,0 z m 5.027084,-0.52917 c 1.594702,-1.90735 0.508719,0.17768 0,0 z M 59.870895,147.6142 c -0.81385,-1.21363 1.60993,1.53384 0,0 z m 74.466355,-1.91823 c 0.14699,-3.49923 0.13815,3.50703 0,0 z m -75.912951,0.19844 c -1.657396,-1.87321 2.143717,1.95184 0,0 z m 20.794931,-0.56292 c 1.594694,-1.90734 0.508728,0.17766 0,0 z m -19.877501,-1.42146 c -0.813845,-1.21363 1.609928,1.53386 0,0 z m 21.465001,-0.16604 c 1.594696,-1.90734 0.508728,0.17766 0,0 z m -23.052501,-1.68604 c -0.750648,-1.17912 1.504757,1.51289 0,0 z m 76.295131,-0.33073 c 0.14684,-1.80623 0.14685,1.80623 0,0 z M 30.350596,140.40431 c 0.151069,-2.96264 0.142759,2.96938 0,0 z m 54.689467,0.42518 c 1.126613,-0.9595 0.639723,0.4794 0,0 z m -18.58698,-1.12958 c 1.646478,-0.26247 0.02047,0.4578 0,0 z m 4.765585,-0.0119 c 3.032445,-0.10077 -0.287814,0.33186 0,0 z m -13.232252,-0.51726 c 1.646429,-0.26247 0.02055,0.4578 0,0 z M 89.273397,137.394 c 1.594697,-1.90734 0.508727,0.17766 0,0 z m -12.435418,-0.79784 c 1.126622,-0.95947 0.639711,0.47939 0,0 z m 57.720941,-0.95434 c 0.19838,-1.46248 0.19836,1.46249 0,0 z m -43.43344,0.16468 c 1.594697,-1.90734 0.508727,0.17767 0,0 z m -30.691668,-2.67823 c 2.5025,-2.3915 -1.882544,2.35058 0,0 z m 33.530967,-3.28608 c -0.126583,-1.42591 0.641065,1.22188 0,0 z M 62.815062,127.8366 c 2.502507,-2.39152 -1.882532,2.35056 0,0 z m 19.07089,-2.4033 c 0.244445,-0.99028 0.113083,1.14966 0,0 z m 8.817515,-0.97014 c -1.657395,-1.87321 2.143715,1.95184 0,0 z m -14.262363,-5.75469 c 1.989795,-1.92535 -1.371398,1.88486 0,0 z m 2.248959,-2.21656 c 1.594705,-1.90735 0.508718,0.17768 0,0 z m 9.36757,-1.28917 c -1.657394,-1.87321 2.143717,1.95184 0,0 z m -1.852083,-2.11666 c -1.592209,-1.84205 2.03469,1.91767 0,0 z m -44.292572,-1.33957 c 1.618745,-1.79062 2.559822,-2.1259 0,0 z m 5.55625,-6.3671 c 1.594706,-1.90735 0.508718,0.17768 0,0 z m 72.991252,-1.15688 c -0.75065,-1.17912 1.50475,1.51289 0,0 z m -68.757918,-3.07646 c 1.594701,-1.907337 0.508723,0.17767 0,0 z m 8.995834,-6.879162 c 1.594689,-1.907331 0.508734,0.177655 0,0 z m 35.933725,-3.520427 c 1.526741,-0.166852 -0.501866,0.46613 0,0 z m -3.318793,-0.267198 c 2.259411,-0.227901 -0.375674,0.433901 0,0 z m -2.766624,-0.261969 c 1.526741,-0.166849 -0.501868,0.466125 0,0 z M 75.465453,88.365231 c 1.526741,-0.166853 -0.501866,0.46613 0,0 z" />
      <path
         id="path1434"
         style="color:#000000;font-style:normal;font-variant:normal;font-weight:normal;font-stretch:normal;font-size:medium;line-height:normal;font-family:sans-serif;font-variant-ligatures:normal;font-variant-position:normal;font-variant-caps:normal;font-variant-numeric:normal;font-variant-alternates:normal;font-variant-east-asian:normal;font-feature-settings:normal;font-variation-settings:normal;text-indent:0;text-align:start;text-decoration:none;text-decoration-line:none;text-decoration-style:solid;text-decoration-color:#000000;letter-spacing:normal;word-spacing:normal;text-transform:none;writing-mode:lr-tb;direction:ltr;text-orientation:mixed;dominant-baseline:auto;baseline-shift:baseline;text-anchor:start;white-space:normal;shape-padding:0;shape-margin:0;inline-size:0;clip-rule:nonzero;display:inline;overflow:visible;visibility:visible;opacity:1;isolation:auto;mix-blend-mode:normal;color-interpolation:sRGB;color-interpolation-filters:linearRGB;solid-color:#000000;solid-opacity:1;vector-effect:none;fill:#a1a006;fill-opacity:1;fill-rule:nonzero;stroke:none;stroke-width:0.264583;stroke-linecap:butt;stroke-linejoin:miter;stroke-miterlimit:4;stroke-dasharray:none;stroke-dashoffset:0;stroke-opacity:1;color-rendering:auto;image-rendering:auto;shape-rendering:auto;text-rendering:auto;enable-background:accumulate;stop-color:#000000;stop-opacity:1"
         d="m 81.008252,171.17343 c 3.032313,-0.10077 -0.287722,0.33187 0,0 z m -4.831731,-5.89829 c 1.989793,-1.92535 -1.3714,1.88486 0,0 z m 5.886979,0.35394 c 1.646477,-0.26247 0.02048,0.4578 0,0 z m 6.945313,-0.983 c 1.594705,-1.90735 0.508718,0.17768 0,0 z m 8.008681,-0.34804 c 2.259743,-0.22789 -0.376376,0.43455 0,0 z m -17.197917,-1.32292 c 2.259744,-0.22789 -0.376374,0.43455 0,0 z M 87.33312,161.13 c -0.6174,-1.88865 1.02415,0.58541 0,0 z m 5.065667,-3.17935 c 1.526745,-0.16683 -0.501875,0.46616 0,0 z m -12.100335,-6.05902 c 0.244447,-0.99025 0.113075,1.1496 0,0 z m 21.166668,-0.52916 c 0.24447,-0.99026 0.11303,1.14958 0,0 z m 4.62633,-0.1878 c 0.99974,-1.31773 -0.33513,1.21029 0,0 z m -26.92183,-1.69069 c 1.526745,-0.16683 -0.501876,0.46616 0,0 z m 23.08925,-2.61943 c 0.24446,-0.99026 0.11303,1.1496 0,0 z m 0.393,-0.98155 c 0.99974,-1.31772 -0.33513,1.21029 0,0 z m -9.872744,-0.10483 c 2.268671,-0.25737 0.09748,0.42605 0,0 z m 20.063074,-1.55945 c 0.24447,-0.99026 0.11302,1.14959 0,0 z m -3.49422,-2.68994 c -0.81385,-1.21364 1.60992,1.53386 0,0 z m -3.98461,-2.09896 c 1.52673,-0.16687 -0.50188,0.4662 0,0 z m -1.05833,-0.52917 c 1.52674,-0.16685 -0.50191,0.46619 0,0 z M 92.927954,138.1069 c 1.52674,-0.16684 -0.501882,0.46618 0,0 z m 14.663076,-0.87759 c 0.14683,-1.80625 0.14683,1.80624 0,0 z m -45.834301,0 c -1.680814,-0.94419 2.514409,0.66984 0,0 z m 35.933725,-0.18074 c 1.526741,-0.16685 -0.501885,0.46618 0,0 z m 14.469406,-1.14218 c 1.98979,-1.92535 -1.3714,1.88486 0,0 z m -41.72149,-0.70991 c 1.526745,-0.16683 -0.501876,0.46616 0,0 z m 32.99024,-1.93592 c 1.98979,-1.92534 -1.3714,1.88483 0,0 z m 9.94276,-0.15434 c 0.24447,-0.99026 0.11303,1.14958 0,0 z m -53.181252,-4.23334 c 0.24445,-0.99027 0.11308,1.14968 0,0 z m 4.793192,-8.44462 c 0.19411,-1.53856 0.114933,1.65787 0,0 z m 0.742169,-2.61343 c 1.594687,-1.90734 0.508744,0.17763 0,0 z m 0.0209,-4.55237 c 0.244463,-0.99027 0.113057,1.14968 0,0 z m 16.862836,-4.25973 c 1.526745,-0.16683 -0.501876,0.46616 0,0 z m -12.170834,-0.79375 c 1.526745,-0.16683 -0.501876,0.46616 0,0 z m 7.391797,-0.52365 c 1.64642,-0.26245 0.02057,0.45776 0,0 z m -7.800173,-1.33105 c 2.259745,-0.22789 -0.376381,0.43455 0,0 z" />
      <path
         id="path1432"
         style="color:#000000;font-style:normal;font-variant:normal;font-weight:normal;font-stretch:normal;font-size:medium;line-height:normal;font-family:sans-serif;font-variant-ligatures:normal;font-variant-position:normal;font-variant-caps:normal;font-variant-numeric:normal;font-variant-alternates:normal;font-variant-east-asian:normal;font-feature-settings:normal;font-variation-settings:normal;text-indent:0;text-align:start;text-decoration:none;text-decoration-line:none;text-decoration-style:solid;text-decoration-color:#000000;letter-spacing:normal;word-spacing:normal;text-transform:none;writing-mode:lr-tb;direction:ltr;text-orientation:mixed;dominant-baseline:auto;baseline-shift:baseline;text-anchor:start;white-space:normal;shape-padding:0;shape-margin:0;inline-size:0;clip-rule:nonzero;display:inline;overflow:visible;visibility:visible;opacity:1;isolation:auto;mix-blend-mode:normal;color-interpolation:sRGB;color-interpolation-filters:linearRGB;solid-color:#000000;solid-opacity:1;vector-effect:none;fill:#5f5f5f;fill-opacity:1;fill-rule:nonzero;stroke:none;stroke-width:0.264583;stroke-linecap:butt;stroke-linejoin:miter;stroke-miterlimit:4;stroke-dasharray:none;stroke-dashoffset:0;stroke-opacity:1;color-rendering:auto;image-rendering:auto;shape-rendering:auto;text-rendering:auto;enable-background:accumulate;stop-color:#000000;stop-opacity:1"
         d="m 86.451173,191.34824 c 0.503111,-1.12074 0.283508,1.36167 0,0 z m -17.484548,-3.7659 c 2.26867,-0.25737 0.09749,0.42605 0,0 z m -22.820313,-8.91743 c 1.126598,-0.95949 0.63974,0.47938 0,0 z m 73.807698,-2.87258 c 3.83825,-3.70289 -3.19283,3.38809 -0.16622,0.17709 z m -77.362563,-7.41975 c 0.999727,-1.31776 -0.335121,1.21032 0,0 z M 87.78896,157.48917 c -0.391402,-3.15464 0.829885,1.19319 0,0 z m -6.751397,-4.05414 c -0.813846,-1.21363 1.60993,1.53386 0,0 z m 5.820833,0 c -0.813845,-1.21363 1.60993,1.53386 0,0 z m -21.946693,-0.79375 c -1.418122,-1.45992 0.436148,0.14162 0.810555,0.68476 l -0.08295,0.0428 z m 20.591381,0.2878 c 1.646417,-0.26245 0.02057,0.45776 0,0 z m -24.560131,-4.25655 c -1.418122,-1.45992 0.436148,0.14162 0.810555,0.68476 l -0.08295,0.0428 z m 3.425859,-0.26458 c -0.81385,-1.21363 1.60993,1.53384 0,0 z m 15.644168,-3.87021 c 1.594697,-1.90734 0.508727,0.17766 0,0 z m 16.862777,-0.19752 c 1.544968,-0.85396 -0.702678,0.90996 0,0 z m 37.133113,-1.44442 c 0.24447,-0.99026 0.11302,1.14961 0,0 z m -36.302557,-0.57327 c -0.750647,-1.17912 1.504759,1.51289 0,0 z m -40.869514,-1.19062 c -1.657396,-1.87321 2.143717,1.95184 0,0 z m -4.340487,-1.77032 c 0.561699,-2.22654 0.254949,1.8168 0,0 z m 13.179558,0.33281 c 1.52674,-0.16684 -0.501882,0.46618 0,0 z m -6.493794,-0.53178 c 2.259741,-0.22789 -0.376373,0.43455 0,0 z m 75.401794,-2.06561 c 0.17397,-2.00685 0.10764,2.26434 0,0 z m -53.98034,-3.83645 c 0.146816,-1.80626 0.146821,1.80624 0,0 z m 49.99645,-11.2448 c 0.1941,-1.53861 0.11439,1.65816 0,0 z m -60.112001,-1.27341 c 1.618714,-1.7906 2.559852,-2.12594 0,0 z m 12.303126,-6.5318 c 0.06984,-0.97031 0.794174,0.89134 0,0 z m 38.463125,-9.19427 c -0.75065,-1.17912 1.50475,1.51289 0,0 z m -72.991252,-0.43062 c 1.594706,-1.90735 0.508718,0.17768 0,0 z m 2.645834,-2.64584 c 1.594701,-1.90734 0.508723,0.17767 0,0 z M 95.838371,90.746481 c 1.526741,-0.166852 -0.501866,0.46613 0,0 z m -3.439584,-0.264584 c 1.526742,-0.166851 -0.501866,0.466127 0,0 z M 76.259203,88.365231 c 1.526741,-0.166853 -0.501866,0.46613 0,0 z" />
      <path
         id="path1430"
         style="color:#000000;font-style:normal;font-variant:normal;font-weight:normal;font-stretch:normal;font-size:medium;line-height:normal;font-family:sans-serif;font-variant-ligatures:normal;font-variant-position:normal;font-variant-caps:normal;font-variant-numeric:normal;font-variant-alternates:normal;font-variant-east-asian:normal;font-feature-settings:normal;font-variation-settings:normal;text-indent:0;text-align:start;text-decoration:none;text-decoration-line:none;text-decoration-style:solid;text-decoration-color:#000000;letter-spacing:normal;word-spacing:normal;text-transform:none;writing-mode:lr-tb;direction:ltr;text-orientation:mixed;dominant-baseline:auto;baseline-shift:baseline;text-anchor:start;white-space:normal;shape-padding:0;shape-margin:0;inline-size:0;clip-rule:nonzero;display:inline;overflow:visible;visibility:visible;opacity:1;isolation:auto;mix-blend-mode:normal;color-interpolation:sRGB;color-interpolation-filters:linearRGB;solid-color:#000000;solid-opacity:1;vector-effect:none;fill:#635f04;fill-opacity:1;fill-rule:nonzero;stroke:none;stroke-width:0.264583;stroke-linecap:butt;stroke-linejoin:miter;stroke-miterlimit:4;stroke-dasharray:none;stroke-dashoffset:0;stroke-opacity:1;color-rendering:auto;image-rendering:auto;shape-rendering:auto;text-rendering:auto;enable-background:accumulate;stop-color:#000000;stop-opacity:1"
         d="m 81.272835,174.08384 c 3.03272,-0.10077 -0.288008,0.33185 0,0 z m 4.69327,-1.40037 c 1.98979,-1.92532 -1.371407,1.88485 0,0 z m 2.513542,-2.48114 c 1.594702,-1.90735 0.508719,0.17768 0,0 z m -1.984376,-2.01677 c 1.989798,-1.92535 -1.371391,1.88483 0,0 z m 1.322917,-1.05834 c 1.98979,-1.92532 -1.371406,1.88485 0,0 z m -4.150651,-1.50365 c 1.52674,-0.16684 -0.501882,0.46618 0,0 z m 1.179124,-0.003 c 2.259745,-0.22789 -0.376377,0.43455 0,0 z m 1.995876,0.003 c 1.52674,-0.16684 -0.501882,0.46618 0,0 z m 9.260417,-1.32292 c 1.526745,-0.16683 -0.501876,0.46616 0,0 z m -1.87303,-0.38126 c 1.544985,-0.85397 -0.702694,0.90995 0,0 z m 4.833056,-0.0671 c 1.59471,-1.90735 0.508718,0.17768 0,0 z M 83.651001,162.9832 c 1.646428,-0.26247 0.02055,0.4578 0,0 z m 6.172451,-0.24369 c 0.244445,-0.99026 0.113078,1.1496 0,0 z m -2.116667,-0.79375 c 0.244445,-0.99026 0.113079,1.1496 0,0 z m 5.485752,-3.73057 c 1.526745,-0.16683 -0.501875,0.46616 0,0 z m -9.883145,-0.63061 c -0.323236,-1.32702 0.861173,1.00766 0,0 z M 80.6493,155.94854 c -1.592206,-1.84205 2.034689,1.91768 0,0 z m 13.854356,0.13897 c 2.752476,-0.21762 1.13055,0.3781 0,3e-4 z m 12.761404,-2.55397 c 1.59472,-1.90736 0.50871,0.17769 0,0 z m 1.85209,-1.6199 c 2.50251,-2.39152 -1.88255,2.35059 0,0 z m -4.90567,-0.14989 c -0.32323,-1.32702 0.86115,1.00765 0,0 z m 2.52442,-1.70219 c 2.50251,-2.39152 -1.88255,2.35059 0,0 z m 6.12719,-4.89479 c 0.19837,-1.46237 0.19832,1.46238 0,0 z m -10.36053,0.0156 c 0.56722,-1.41917 0.381,0.91551 0,0 z m 3.43959,0.14907 c 1.59468,-1.90733 0.50873,0.17767 0,0 z m 0.98777,-4.16627 c 1.545,-0.85397 -0.70268,0.90996 0,0 z m -3.41863,-2.26457 c 1.52674,-0.16685 -0.50191,0.46619 0,0 z m -34.275047,-3.70678 c 2.259741,-0.22789 -0.376373,0.43455 0,0 z m 1.995877,0.003 c 1.526745,-0.16683 -0.501876,0.46616 0,0 z m -11.906251,-0.26458 c 1.526745,-0.16683 -0.501875,0.46616 0,0 z m 15.064715,0.006 c 1.646428,-0.26247 0.02055,0.4578 0,0 z m 30.493226,-3.13208 c 3.41545,-3.14676 -2.658,2.97963 0,0 z m 7.11,-1.91823 c -0.81385,-1.21365 1.60991,1.53387 0,0 z" />
      <path
         id="path1428"
         style="color:#000000;font-style:normal;font-variant:normal;font-weight:normal;font-stretch:normal;font-size:medium;line-height:normal;font-family:sans-serif;font-variant-ligatures:normal;font-variant-position:normal;font-variant-caps:normal;font-variant-numeric:normal;font-variant-alternates:normal;font-variant-east-asian:normal;font-feature-settings:normal;font-variation-settings:normal;text-indent:0;text-align:start;text-decoration:none;text-decoration-line:none;text-decoration-style:solid;text-decoration-color:#000000;letter-spacing:normal;word-spacing:normal;text-transform:none;writing-mode:lr-tb;direction:ltr;text-orientation:mixed;dominant-baseline:auto;baseline-shift:baseline;text-anchor:start;white-space:normal;shape-padding:0;shape-margin:0;inline-size:0;clip-rule:nonzero;display:inline;overflow:visible;visibility:visible;opacity:1;isolation:auto;mix-blend-mode:normal;color-interpolation:sRGB;color-interpolation-filters:linearRGB;solid-color:#000000;solid-opacity:1;vector-effect:none;fill:#2e2f2f;fill-opacity:1;fill-rule:nonzero;stroke:none;stroke-width:0.264583;stroke-linecap:butt;stroke-linejoin:miter;stroke-miterlimit:4;stroke-dasharray:none;stroke-dashoffset:0;stroke-opacity:1;color-rendering:auto;image-rendering:auto;shape-rendering:auto;text-rendering:auto;enable-background:accumulate;stop-color:#000000;stop-opacity:1"
         d="m 86.098396,190.93972 c 2.064608,-0.94932 -0.815797,0.88639 0,0 z M 78.37587,190.4944 c 1.526745,-0.16683 -0.501876,0.46616 0,0 z m 14.33711,-0.20052 c 0.570064,-1.81094 0.293246,1.37013 0,0 z M 46.112561,174.33712 c -0.750652,-1.17913 1.504757,1.5129 0,0 z m -1.421458,-4.29948 c 0.811332,-0.85067 0.0836,0.91168 0,0 z m 41.357684,-4.41407 c 1.52674,-0.16684 -0.501882,0.46618 0,0 z m -50.729504,-0.76735 c 0.244446,-0.99026 0.113078,1.14958 0,0 z m 55.806197,-1.79764 c 1.594705,-1.90735 0.508718,0.17768 0,0 z m -9.045443,-0.34543 c 1.526745,-0.16683 -0.501876,0.46616 0,0 z m 7.524089,-0.79973 c -2.883991,-1.7518 -6.316971,-4.21138 -7.611601,-7.21276 -3.027202,-3.80756 0.403258,-4.79987 1.436779,-0.84913 -0.513899,1.4285 3.568679,-2.55981 3.808843,0.9678 -1.765965,3.14121 8.564227,7.06896 2.365979,7.09409 z M 69.115453,155.5694 c 1.526745,-0.16683 -0.501876,0.46616 0,0 z m -2.880834,-1.6052 c -1.418122,-1.45992 0.436149,0.14162 0.810556,0.68476 l -0.08295,0.0429 z m 0.656347,-3.30729 c -1.657396,-1.87321 2.143717,1.95184 0,0 z m 13.142902,-1.41111 c 0.244445,-0.99026 0.113079,1.1496 0,0 z m 5.766195,-0.83785 c -0.81385,-1.21363 1.609929,1.53384 0,0 z m 48.208807,-0.22048 c 0.24447,-0.99026 0.11302,1.14959 0,0 z m -53.731307,-0.77171 c 1.764673,-1.48114 -0.682753,1.41809 0,0 z m 10.389931,-1.37397 c 2.259744,-0.22789 -0.376379,0.43455 0,0 z m 6.146528,-1.13957 c 4.056018,-0.80236 -0.958257,-3.98003 -0.04723,-6.75957 2.099799,-2.3233 3.264517,3.42834 6.583547,1.72973 2.54778,-0.74604 6.7166,0.22576 2.26765,2.11683 -3.56316,0.0496 -5.80711,0.43625 -7.861818,2.99134 -0.01175,-0.075 -1.173747,0.51784 -0.94215,-0.0783 z m -42.47327,-2.84427 c -2.464176,-2.52009 -1.086953,-1.20279 0.631618,0.46272 2.155745,2.05176 0.476322,0.87669 -0.631618,-0.46272 z m -23.783969,0.57327 c 0.244458,-0.99029 0.113061,1.14966 0,0 z m 62.949947,-0.24254 c 0.562773,-1.35876 0.437136,1.3138 0,0 z m -28.442709,-0.97762 c -2.16275,-2.42557 4.908382,-1.85771 6.449726,-1.38745 -1.65769,1.22337 -4.422994,2.03056 -6.449726,1.38745 z m 20.769792,-2.16498 c 1.594705,-1.90735 0.508718,0.17768 0,0 z m -6.879167,-0.94892 c 0.965981,-1.0637 1.195679,-1.88033 1.711537,-3.13367 0.162601,-4.04416 1.442067,-6.88608 1.917372,-10.89339 -0.03442,-1.81345 3.375199,-4.01224 1.771936,0.27691 -0.626238,4.57908 -0.312517,11.30472 -4.835206,13.86448 l -0.414405,0.0415 -0.151242,-0.15586 z m 17.197917,-4.07817 c 1.594698,-1.90734 0.508727,0.17767 0,0 z m -38.608279,-1.90652 c 0.244446,-0.99026 0.113079,1.14958 0,0 z m 51.787836,-3.2014 c 1.52673,-0.16687 -0.50187,0.4662 0,0 z m -29.562835,-3.1486 c 0.244458,-0.99029 0.11306,1.14966 0,0 z m -10.339639,-0.73931 c 1.594705,-1.90735 0.508718,0.17768 0,0 z m 3.439583,-2.94281 c 2.502507,-2.39152 -1.882532,2.35056 0,0 z M 85.682622,110.2418 c 0.399944,-1.15016 0.366108,1.11098 0,0 z m -35.832144,-7.27604 c 3.4154,-3.146716 -2.657985,2.97963 0,0 z M 77.052953,88.365231 c 1.526741,-0.166853 -0.501866,0.46613 0,0 z m 3.175001,0 c 1.52674,-0.166851 -0.50187,0.466129 0,0 z" />
      <path
         id="path1426"
         style="color:#000000;font-style:normal;font-variant:normal;font-weight:normal;font-stretch:normal;font-size:medium;line-height:normal;font-family:sans-serif;font-variant-ligatures:normal;font-variant-position:normal;font-variant-caps:normal;font-variant-numeric:normal;font-variant-alternates:normal;font-variant-east-asian:normal;font-feature-settings:normal;font-variation-settings:normal;text-indent:0;text-align:start;text-decoration:none;text-decoration-line:none;text-decoration-style:solid;text-decoration-color:#000000;letter-spacing:normal;word-spacing:normal;text-transform:none;writing-mode:lr-tb;direction:ltr;text-orientation:mixed;dominant-baseline:auto;baseline-shift:baseline;text-anchor:start;white-space:normal;shape-padding:0;shape-margin:0;inline-size:0;clip-rule:nonzero;display:inline;overflow:visible;visibility:visible;opacity:1;isolation:auto;mix-blend-mode:normal;color-interpolation:sRGB;color-interpolation-filters:linearRGB;solid-color:#000000;solid-opacity:1;vector-effect:none;fill:#000000;fill-opacity:1;fill-rule:nonzero;stroke:none;stroke-width:0.264583;stroke-linecap:butt;stroke-linejoin:miter;stroke-miterlimit:4;stroke-dasharray:none;stroke-dashoffset:0;stroke-opacity:1;color-rendering:auto;image-rendering:auto;shape-rendering:auto;text-rendering:auto;enable-background:accumulate;stop-color:#000000;stop-opacity:1"
         d="m 76.970271,192.79181 c 0.05565,-1.07304 1.145072,1.27014 0,0 z m 15.3962,-0.72761 c -2.112855,-5.11246 -8.643213,1.79797 -12.642875,-1.23169 -4.998155,-1.95276 -10.122685,-3.35952 -15.338667,-4.59456 -5.355641,-0.78231 -7.319449,-6.62358 -12.571068,-7.62121 -2.289447,-3.36887 -7.152818,-3.97988 -8.189202,-8.54693 3.046884,-1.98277 -4.08573,-1.57555 -3.490014,-4.85879 -3.350322,-6.76181 -7.284086,-13.36555 -9.399061,-20.63803 -1.190751,-6.67532 2.262188,-12.82842 2.922008,-19.34071 9.36e-4,-7.59275 7.080136,-10.39196 10.738574,-15.93002 5.499524,-7.14343 12.993552,-12.437313 20.286845,-17.571754 6.818753,-3.240092 14.787555,-4.353825 22.061294,-1.998673 7.256629,1.455989 15.130585,0.909479 21.751045,4.702798 3.59521,6.699319 12.74471,7.841409 15.64131,15.107289 4.07794,7.52352 9.00155,14.92781 9.93778,23.6679 0.58907,6.04079 0.22109,12.22232 -0.58698,18.21422 -3.11794,13.16643 -11.61931,24.93285 -23.2576,31.88374 -3.76992,2.59548 -7.94993,4.38867 -12.427864,5.29235 -2.366129,-0.4691 -1.608587,5.39556 -2.952254,1.79208 0.425509,-2.9028 -3.001489,-0.25286 -1.956062,1.729 l -0.527209,-0.0571 z m -7.723283,-18.35686 c 5.105276,-2.02629 6.683409,-10.60841 13.029289,-9.26106 6.419433,-2.3617 0.819216,-10.96841 -4.702624,-8.52168 -4.253648,-2.04384 -6.974208,-6.77065 -10.053536,-9.93747 3.201584,-3.05697 8.367665,2.51744 12.504621,-0.74851 3.075597,0.46126 6.097322,-4.5583 8.807382,-2.29736 -4.490586,3.32345 -3.44879,15.44101 3.63595,10.21975 4.25796,-2.62306 6.97165,-8.69835 3.70145,-13.10455 -2.51103,-3.56596 5.93227,-7.94735 -0.67085,-10.4513 -6.75245,-1.11371 -9.17028,7.46 -15.864003,7.94764 -3.052707,1.1543 -3.513295,-0.13627 -0.557835,-1.45704 5.901888,-4.58301 -0.152671,-10.54898 -2.625573,-15.06759 -3.5958,-4.25357 -4.495495,-11.37345 -10.353212,-12.74182 -4.537349,-0.0367 -10.19493,-4.3368 -13.829067,0.12936 -2.211889,5.05602 -4.154101,10.33401 -6.116632,15.56577 0.19546,5.57471 -5.509724,8.65451 -8.005869,11.98463 1.314106,5.97916 10.625816,1.23469 11.750231,5.45263 5.398447,-0.35268 11.328371,-1.56806 15.966476,-4.52035 2.72073,-4.01387 3.364371,-9.69509 3.039459,-14.49133 -2.710979,0.73285 -1.789362,7.10054 -3.409714,9.64431 1.00992,-4.93895 2.689389,-14.11812 4.618769,-16.087 2.598352,5.4926 6.816052,10.0784 9.214025,15.65654 -2.329571,4.6231 -9.002588,7.2067 -12.76402,11.4261 -4.386171,2.83149 -8.325385,6.37554 -12.334948,9.61606 -3.930634,-2.69367 -7.678466,-6.33828 -11.091605,-9.9256 -1.429753,-2.48854 -7.968372,-6.09365 -4.350078,-0.96136 4.245766,4.25541 8.258343,8.87731 12.915677,12.66666 4.886895,4.6007 9.244368,-8.63252 11.90379,-0.39332 1.583975,3.39255 8.141479,5.41922 7.999714,8.21583 -4.75524,0.88069 -13.941612,0.46023 -11.730097,8.10278 1.466126,3.4682 6.069939,4.59476 9.37283,3.33928 z m -4.946671,-2.59674 c -5.446433,-4.55601 4.394448,-6.33321 7.745556,-5.50803 2.967326,-1.34658 4.534109,-4.34391 3.214029,-6.73843 2.924079,-3.19116 12.392538,2.62681 4.638941,2.63517 -5.91318,-0.21336 -6.927692,7.7392 -12.442419,9.12944 -0.998095,0.39323 -2.084589,0.57675 -3.156107,0.48185 z m 8.716984,-12.75873 c -0.951054,-1.52657 1.811439,1.57016 0,0 z m -0.971299,-2.49149 c 0.277173,-0.97135 0.07312,1.19054 0,0 z m -5.72031,-1.18618 c -0.351348,-1.3479 0.872611,1.01717 0,0 z m 4.788955,-1.18143 c -1.529087,-1.50146 2.212521,1.55063 0,0 z m -1.735367,-0.12388 c 2.167276,-1.19804 -0.658063,0.91877 0,0 z m 19.4228,-2.2507 c -0.79612,-4.03227 7.75075,-11.00211 0.19936,-12.13384 -2.39382,0.69957 -7.153338,0.3191 -2.464,-1.56573 2.23603,-1.49954 7.61581,-8.34497 8.64712,-4.07079 -4.68165,2.80619 -1.82186,7.26991 -0.61163,10.78844 -0.54963,2.60774 -2.45188,7.55815 -5.77085,6.98192 z m -23.39155,-0.10451 c 0.870549,-1.93655 0.851008,0.34013 0,0 z m 1.198885,-1.16193 c -0.283083,-2.77009 0.847807,1.29617 0,0 z m -2.521802,-0.44579 c -1.002797,-3.16144 2.431681,1.18072 4e-6,0 z m 14.419792,-6.35582 c -0.806895,-1.75981 1.61155,0.94108 0,0 z M 86.775418,142.08 c 3.151988,-1.41808 -0.700635,1.62293 0,0 z m 10.303187,-0.88194 c 0.139644,-0.99643 0.725053,0.9998 0,0 z m -7.805208,-0.26459 c 0.577656,-1.13769 0.450411,1.05174 0,0 z m 3.853468,-0.87131 c 0.958666,-1.45034 -0.216814,1.17537 0,0 z m -26.921829,-0.10318 c 1.606401,-0.38271 -0.377385,0.5657 0,0 z M 96.64798,139.6767 c -0.592997,-1.16538 1.5647,1.78302 0,0 z m -19.675206,-4.29543 c -5.808647,-0.48549 -11.670276,-0.34359 -17.467297,-0.40452 1.309679,-3.00996 6.144504,-5.16659 8.572057,-8.11675 4.441346,-3.93458 8.328253,-8.57204 13.233355,-11.93335 3.816741,-0.13394 -1.365522,6.76987 -1.037972,9.30041 -1.217589,3.35071 -1.76024,9.05666 -3.300143,11.15421 z m -19.184795,-0.10803 c 0.887755,-1.11288 0.758725,0.54689 0,0 z m 4.233333,-7.08836 c 2.713794,-6.41709 4.988469,-13.1126 8.1786,-19.27202 3.501059,-0.67471 8.420617,1.31834 11.620834,2.5814 -5.972417,3.2439 -10.569272,8.45378 -15.29562,13.11028 -1.493097,1.20296 -3.121073,2.24454 -4.503814,3.58034 z m -15.875,43.70484 c -0.683026,-1.15449 -0.639336,1.12287 0,0 z m 39.902475,19.39843 c 1.606402,-0.38271 -0.377386,0.5657 0,0 z m -13.039061,-1.1289 c 0.482752,-1.73362 1.292643,0.45757 0,0 z m -12.972789,-2.65911 c 1.14241,-1.15181 0.101802,0.969 0,0 z m -3.828796,-1.84175 c -0.484321,-1.50083 1.946188,0.95303 0,0 z m -10.294165,-7.39314 c -0.667677,-1.80876 1.720929,0.97062 0,0 z m -3.261217,-2.8698 c -2.587392,-4.87101 3.540398,1.92978 0,0 z m -2.776625,-3.56837 c -3.238689,-4.39877 3.056814,1.46891 0,0 z m -4.036487,-5.87592 c -1.38404,-2.58882 1.632217,0.95372 0,0 z m -2.485101,-5.87012 c -1.05303,-2.48456 0.681279,-1.00236 0.471261,0.48487 z m -2.356665,-8.89496 c -0.436507,-2.66962 1.43813,0.65649 0,0 z" />
    </g>
  </g>
</svg>
