<?xml version="1.0" encoding="UTF-8" standalone="no"?>
<svg
   xmlns:dc="http://purl.org/dc/elements/1.1/"
   xmlns:cc="http://creativecommons.org/ns#"
   xmlns:rdf="http://www.w3.org/1999/02/22-rdf-syntax-ns#"
   xmlns:svg="http://www.w3.org/2000/svg"
   xmlns="http://www.w3.org/2000/svg"
   xmlns:sodipodi="http://sodipodi.sourceforge.net/DTD/sodipodi-0.dtd"
   xmlns:inkscape="http://www.inkscape.org/namespaces/inkscape"
   width="161.31207"
   height="67.79882"
   viewBox="0 0 42.680485 17.938438"
   version="1.1"
   id="svg20705"
   inkscape:version="1.0.2 (1.0.2+r75+1)"
   sodipodi:docname="dibujo.svg">
  <defs
     id="defs20699" />
  <sodipodi:namedview
     id="base"
     pagecolor="#ffffff"
     bordercolor="#666666"
     borderopacity="1.0"
     inkscape:pageopacity="0.0"
     inkscape:pageshadow="2"
     inkscape:zoom="0.67496943"
     inkscape:cx="546.88906"
     inkscape:cy="-71.638854"
     inkscape:document-units="mm"
     inkscape:current-layer="layer1"
     inkscape:document-rotation="0"
     showgrid="false"
     units="px"
     fit-margin-top="0"
     fit-margin-left="0"
     fit-margin-right="0"
     fit-margin-bottom="0"
     inkscape:window-width="1600"
     inkscape:window-height="800"
     inkscape:window-x="0"
     inkscape:window-y="0"
     inkscape:window-maximized="1" />
  <metadata
     id="metadata20702">
    <rdf:RDF>
      <cc:Work
         rdf:about="">
        <dc:format>image/svg+xml</dc:format>
        <dc:type
           rdf:resource="http://purl.org/dc/dcmitype/StillImage" />
        <dc:title></dc:title>
      </cc:Work>
    </rdf:RDF>
  </metadata>
  <g
     inkscape:label="Capa 1"
     inkscape:groupmode="layer"
     id="layer1"
     transform="translate(-66.879517,-115.85401)">
    <g
       id="g20629"
       transform="matrix(1.1439055,0,0,1.1439055,35.688561,42.008098)">
      <path
         id="path20667"
         style="fill:#ece6d7;stroke-width:0.32"
         d="m 41.901258,77.361663 c -0.809009,-0.704789 -1.435242,-2.362519 -2.509256,-2.363846 -0.546531,1.457627 -1.275835,3.226377 -2.990153,3.569602 -1.6978,0.319971 -3.483128,0.329404 -5.183501,0.03273 -2.288655,-0.806276 -4.377291,-3.091881 -3.894424,-5.665513 0.346115,-2.204226 1.801916,-4.549254 4.192555,-4.851198 1.694316,-0.219799 3.696258,-0.371227 5.024025,0.928637 1.164434,1.386147 2.754657,-0.0324 3.855983,-0.719173 2.04256,-1.30633 3.996685,-2.838022 6.259691,-3.736945 1.408362,0.514458 2.097006,2.054297 3.05543,3.122571 0.818175,1.127794 1.992091,2.784116 3.4631,1.4844 1.974314,-1.030036 3.808761,-2.313098 5.79964,-3.310595 1.850823,2.113045 3.442763,4.458031 5.031586,6.776628 1.357451,1.32716 -0.302403,2.255324 -1.389292,2.929636 -1.655027,1.073562 -3.198164,2.373144 -5.017632,3.159729 -1.676337,0.372178 -2.577699,-1.538569 -3.737415,-2.392123 -1.159681,-1.432534 -2.896809,-0.310974 -4.018894,0.525115 -1.744227,1.151441 -3.428558,2.418287 -5.282521,3.386387 -1.028624,-0.795209 -1.810542,-1.893843 -2.658922,-2.876038 z M 30.444517,75.437701 c -1.523238,-2.131212 0.765409,2.052442 0,0 z" />
      <path
         id="path20665"
         style="fill:#d4d0cc;stroke-width:0.32"
         d="m 41.774793,77.172321 c -0.74426,-0.539925 -1.53464,-2.761891 -2.476144,-2.026297 -0.443091,1.295368 -1.031604,2.734968 -2.492625,3.129988 -2.3259,0.876152 -5.250885,1.027088 -7.243597,-0.690215 -1.854005,-1.275551 -2.860782,-3.785551 -1.94379,-5.923088 0.594349,-1.805665 2.164321,-3.240099 4.077242,-3.462394 1.672595,-0.241665 3.58269,-0.286741 4.913621,0.935179 1.149498,1.555764 2.409743,0.183694 3.55627,-0.564033 2.110926,-1.363954 4.112909,-2.949004 6.395477,-4.01376 1.684956,1.136165 2.732041,2.987058 4.120181,4.446709 0.783908,1.656559 2.242631,0.486669 3.325112,-0.159855 1.631055,-0.9064 3.198308,-1.960526 4.917171,-2.686854 1.479736,1.452844 2.610714,3.24818 3.804012,4.941732 0.384422,0.915207 1.24733,1.749974 1.11148,2.680695 1.333356,-0.05091 -1.137835,1.521031 -1.667387,1.92446 -1.710718,1.148894 -3.373422,2.443506 -5.274537,3.253113 -1.60533,-0.816583 -2.492261,-2.585653 -4.060248,-3.443552 -1.477971,-0.200983 -2.607661,1.088744 -3.806518,1.770655 -1.445764,0.933229 -2.850441,1.996608 -4.456292,2.632897 -1.170006,-0.578934 -1.944831,-1.785682 -2.799428,-2.74538 z m 16.43639,0.56538 c -0.219492,-0.85916 -0.465777,0.02909 -0.572672,0.368669 -0.390932,0.3405 0.703263,-0.15284 0.572672,-0.368669 z m 4.870669,-3.243111 c 0.856703,-1.124804 -1.064315,0.106914 -1.366337,0.495314 -0.551242,0.419221 -2.174678,-0.213365 -0.968413,0.680639 -0.571489,0.75204 -1.517965,-0.465355 -2.216158,0.527217 -0.827785,1.531135 1.413991,0.51813 1.94019,-0.03321 0.868429,-0.559444 1.734008,-1.123526 2.610718,-1.669958 z m -31.517335,1.583111 c -0.0763,-0.559511 1.389631,-0.185669 0.400005,-0.765455 -0.534709,-1.021707 -1.115538,-1.860258 -2.132439,-2.498677 -0.367314,-0.495071 -0.812795,-1.873622 -1.122345,-0.522113 -0.406941,1.173233 0.400375,2.136877 1.123934,2.638696 1.003665,-0.236144 0.201163,0.47793 -0.219077,0.346387 0.174678,0.532216 1.947622,1.744523 1.949922,0.801162 z m 31.505502,-2.702529 c 0.703179,-1.183668 -1.889296,0.749475 -1.777403,0.703394 0.547942,0.596169 1.400715,-0.281087 1.777403,-0.703394 z" />
      <path
         id="path20663"
         style="fill:#cbc5b6;stroke-width:0.32"
         d="m 41.830083,77.194939 c -0.779682,-0.756408 -1.561055,-2.398942 -2.531475,-2.416089 -0.318702,1.456108 -1.005636,2.838645 -2.451748,3.47356 -1.425154,0.777849 -3.143616,0.501015 -4.695095,0.393293 -2.43955,-0.314541 -4.686441,-2.368506 -4.71588,-4.920793 -0.212233,-2.328981 1.27205,-4.703389 3.572242,-5.320863 2.156394,-0.737212 4.630196,-0.227032 6.329692,1.286025 1.314481,0.652943 2.382796,-1.059555 3.535262,-1.544424 1.894956,-1.220338 3.713433,-2.592879 5.738788,-3.587947 1.379224,0.4917 1.738184,2.00057 2.630749,2.991663 0.921235,0.799889 1.720113,2.93194 3.172929,2.209444 2.175914,-0.982148 4.105263,-2.450154 6.31807,-3.345582 1.239751,0.339542 1.76967,2.202204 2.78592,3.078857 0.885234,0.948784 1.890133,2.826914 0.227512,3.585061 -1.319841,0.467748 -2.183275,1.470518 -3.310613,2.179659 -0.611471,0.782989 -0.765158,2.04735 -0.955491,2.956899 1.263477,-0.283159 2.236495,-1.434414 3.393198,-2.050287 1.103086,-0.705084 2.132924,-1.985333 3.393815,-2.167382 -1.102378,1.15782 -2.622385,1.847655 -3.883719,2.828651 -1.227025,0.599026 -2.453963,2.211768 -3.840336,1.968957 -1.298983,-0.91114 -2.161317,-2.303975 -3.429554,-3.240566 -1.418155,-0.569488 -2.624621,0.835158 -3.782666,1.462383 -1.571088,1.016849 -3.094276,2.164801 -4.819726,2.902243 -1.094073,-0.643896 -1.860549,-1.768208 -2.681874,-2.722762 z M 33.140085,76.671938 C 32.011278,75.89219 31.91818,74.32835 30.909873,73.413495 c -0.535869,-0.753558 -2.393962,-2.542276 -2.323589,-0.516558 -0.183567,1.119638 0.694624,2.240191 1.405542,2.496577 0.157702,1.314708 2.93472,1.794979 3.512765,1.461205 l -0.152078,-0.07876 -0.212426,-0.104019 z m 25.784433,-3.420904 c -1.092744,-1.051551 -1.315292,1.008003 0,0 z" />
      <path
         id="path20661"
         style="fill:#c3bcb4;stroke-width:0.32"
         d="m 41.851636,77.198903 c -0.791673,-0.765381 -1.569858,-2.352841 -2.548963,-2.43314 -0.375363,1.386259 -0.978178,2.855721 -2.441023,3.401297 -2.817014,1.241465 -6.538985,0.655038 -8.557316,-1.757643 -1.115839,-1.658784 -0.995147,-3.964867 -0.155404,-5.716711 1.298557,-2.531468 4.655886,-3.048777 7.132985,-2.17141 1.247242,0.381935 2.331975,2.304372 3.621513,0.916586 2.581848,-1.604335 4.99691,-3.500729 7.708441,-4.880181 1.381703,0.492723 1.73943,2.005532 2.635309,2.997179 0.920103,0.823807 1.710753,2.852977 3.186168,2.261319 2.172326,-0.950543 4.038932,-2.494137 6.23021,-3.400018 1.732932,0.407592 -0.587179,1.760839 -1.262862,2.222217 -1.244914,0.854423 -2.595093,2.004901 -4.140014,2.039207 0.18191,0.922717 1.280687,1.476065 1.674048,1.671898 0.908284,-0.233947 -0.791923,-0.814623 0.261693,-1.216209 0.609866,-0.97632 2.882304,-0.632802 2.705057,-1.859463 -0.753511,-0.943665 0.939925,0.125625 1.02304,-0.196948 0.589161,-1.284893 0.609865,1.65326 1.155933,0.100294 0.432938,-1.730291 1.837594,0.873427 2.292047,1.516036 1.113531,1.604101 -1.038007,2.463027 -2.14725,3.056365 -0.848813,1.017937 -2.039874,1.078106 -2.533953,2.23098 0.0052,0.751441 -0.933872,2.913137 0.630861,1.995374 0.562448,-0.375789 1.151667,-0.645986 0.287361,0.02203 -1.091656,1.48947 -2.628541,0.735572 -3.500909,-0.515053 -0.944239,-0.871579 -1.934661,-2.765741 -3.474973,-1.904575 -2.443487,1.311035 -4.560761,3.201797 -7.098098,4.339134 -1.083823,-0.659123 -1.855338,-1.769222 -2.683901,-2.718564 z M 33.45348,76.477701 c -1.469648,-1.463885 -2.296393,-3.46772 -3.854798,-4.842021 -1.58391,-0.226277 -1.089894,2.462634 -0.521857,3.342123 0.455745,0.580458 1.122953,-0.02005 0.966123,0.936677 0.999657,0.91645 2.48554,1.069373 3.787793,1.079083 0.172889,-0.151399 -0.343642,-0.400187 -0.377261,-0.515862 z m 4.562967,-3.36 c -0.408451,-0.181653 -0.0026,1.655812 0.06658,0.4 l -0.01664,-0.213125 z m 21.172624,0.359798 c 0.549901,-0.537784 -1.553968,-1.913866 -0.626146,-0.39552 -0.137709,0.101042 -1.336639,-1.541122 -0.710258,-0.11245 0.359853,0.888506 0.496603,1.215858 1.336404,0.50797 z m -2.281315,-0.833703 c -0.390504,-0.964526 -1.864706,0.599203 -0.532422,0.0021 0.409796,0.05243 1.165298,1.357369 0.72726,0.221358 z M 37.496873,71.620787 c -0.144935,-0.565674 -2.297953,-2.348155 -1.213716,-0.920985 0.667243,0.253442 0.686215,2.051537 1.310057,1.150147 z m 18.867645,-0.343086 c -0.789959,-1.232515 -0.796669,1.20537 0,0 z m 3.52,5.648062 c 0.329291,-0.591799 2.295818,-1.450731 0.898795,-0.380225 -0.257495,0.111498 -0.60887,0.502016 -0.898795,0.380225 z m 2.56,-1.80057 c 0.438725,-0.220978 1.707142,-1.744262 1.779907,-0.9997 -0.56008,0.552863 -1.847516,1.299704 -2.192127,1.340345 l 0.167863,-0.141622 z m -3.005043,-6.911784 c -0.62565,-1.599508 1.714668,0.491549 0.116596,0.235649 z" />
      <path
         id="path20659"
         style="fill:#b8b4ae;stroke-width:0.32"
         d="m 41.855492,77.191977 c -0.749628,-0.602751 -1.789061,-2.905807 -2.738879,-2.139389 -0.0849,1.357167 -1.206909,2.472409 -2.261209,3.213808 -1.514257,0.427094 -3.139701,0.340652 -4.70233,0.310506 -1.793473,-0.100163 -3.39316,-1.344994 -4.263854,-2.859911 -0.522203,-1.472118 -0.362437,-3.142765 0.08034,-4.618638 0.954082,-2.325922 3.829411,-3.372017 6.187136,-2.917395 1.470215,0.170755 2.511344,1.315843 3.730303,1.958739 1.18291,-0.555934 2.125632,-1.580895 3.273437,-2.241512 1.815631,-1.158711 3.611721,-2.403449 5.611237,-3.222906 1.300995,0.676044 1.798034,2.378711 2.886127,3.379678 0.840782,1.005427 1.97025,2.429202 3.187991,1.989389 0.508425,1.539741 1.713487,2.775251 2.953776,3.772683 0.948686,0.519227 -0.106042,-1.796716 1.023333,-0.911156 1.013339,1.219767 -0.04466,-0.611689 -0.410376,-0.973647 0.207652,-1.610617 1.442416,0.507703 1.536876,1.243787 0.04715,1.062277 1.774091,1.11496 0.31379,1.880793 -0.705135,0.747665 -0.812114,2.060907 -0.967933,3.057176 0.415162,0.416895 1.429143,-0.492863 0.571017,0.460315 -1.286443,0.987115 -2.402452,-1.008681 -3.272693,-1.745691 -0.779956,-1.174641 -2.280214,-2.1114 -3.534298,-0.995145 -2.197923,1.328799 -4.208053,2.998842 -6.54494,4.079514 -1.069106,-0.672668 -1.83477,-1.773548 -2.658856,-2.720998 z m -8.407631,-0.714276 c -1.523284,-1.518707 -2.355461,-3.630155 -4.015223,-5.01057 -1.330418,0.07144 -0.964014,2.353565 -0.458804,3.255685 0.896227,1.751487 3.041351,2.446241 4.880696,2.233585 -0.01425,-0.214597 -0.299066,-0.320913 -0.406669,-0.4787 z M 57.68358,74.261702 c -0.899717,-1.280878 0.423176,1.850959 0.120092,0.238577 z M 37.820968,72.447546 c -0.291937,-0.829743 -1.188946,-2.253448 -1.899794,-2.229756 0.622971,0.460531 1.033459,1.66128 1.177732,1.900461 0.668907,-0.06648 0.852478,2.968306 0.933491,1.205712 -0.04555,-0.29741 -0.11784,-0.590553 -0.211429,-0.876417 z m -4.076876,-0.627615 c -0.272792,-0.371787 -0.636621,0.520154 -1.000882,0.228164 0.135848,0.563789 1.264101,0.386715 1.000882,-0.228164 z m 21.74943,1.61777 c -0.928165,-0.508568 -0.233579,-1.744514 0.383026,-0.708192 0.08628,0.372946 0.215377,1.68284 -0.383026,0.708192 z m 4.554221,-0.55478 c -0.610156,-0.348675 -1.825385,-0.408834 -0.914746,-1.333519 0.515122,-0.923429 2.393351,-1.740116 1.423834,-2.684501 1.098959,0.652383 2.774657,2.798888 1.159026,3.857844 -0.528824,-0.371498 0.196577,-2.91492 -1.099858,-1.597015 -0.944026,0.471891 -0.642949,1.146237 0.08418,1.598375 0.103075,0.369057 -0.522301,0.439539 -0.652439,0.158816 z m -6.678946,-2.40522 c -0.01568,-1.47681 0.905267,1.114682 0.08144,0.186375 z M 54.0406,69.776362 c -1.042792,-0.488997 0.337308,-0.615932 0.666421,-0.532681 -0.728631,-0.753501 2.246944,-1.22526 0.964755,-0.265779 -0.05353,0.710746 0.110656,0.592772 -0.555698,0.567494 0.05677,0.708096 -0.700489,0.278596 -1.075478,0.230966 z m 2.197486,-1.246571 c -0.964477,-1.481166 2.153117,0.06018 1.383094,-1.266499 -1.08155,0.153518 2.335072,-1.565929 1.351418,-0.0947 -0.567227,0.498569 -2.094747,2.261954 -2.734512,1.361197 z" />
      <path
         id="path20657"
         style="fill:#c4b891;stroke-width:0.32"
         d="m 41.751455,77.023091 c -0.768018,-0.74414 -1.650686,-2.514563 -2.517247,-2.461281 -0.301741,1.202593 -0.581361,2.594796 -1.783949,3.237313 -1.834845,1.020224 -4.072356,0.945596 -6.091043,0.683352 -1.333344,-0.483884 -2.532203,-1.447968 -3.337564,-2.611 -0.809637,-1.734496 -0.47872,-3.836237 0.305022,-5.52183 1.098163,-1.270492 -0.840859,2.384668 0.334627,0.624179 0.177824,-1.249311 0.993658,-2.545523 2.474246,-2.331184 1.003572,-0.876217 2.470686,-0.627497 3.674392,-0.23601 1.417183,0.09468 2.102949,1.804101 3.414237,1.788595 1.288542,-0.840356 2.400566,-1.948388 3.723103,-2.756997 1.55173,-0.998996 3.079196,-2.094025 4.804851,-2.770946 1.121663,0.535117 1.624665,1.940572 2.425144,2.87632 0.807233,0.981757 1.539982,2.133368 2.659463,2.774099 0.666599,-0.391755 1.111965,-0.924422 1.178123,0.239951 0.526395,0.675017 1.292019,2.970698 2.258535,2.110845 -0.350083,1.222787 1.130071,2.224729 1.884993,3.156871 0.597408,0.748605 -0.831949,2.767693 0.420846,2.631606 -1.177233,0.879705 -2.222237,-1.339583 -3.16914,-1.929438 -0.916727,-1.348342 -2.667538,-1.493408 -3.848241,-0.39269 -2.014299,1.267257 -3.905526,2.770156 -6.06525,3.781274 -1.097403,-0.732916 -1.890675,-1.894752 -2.745148,-2.893029 z m -8.191803,0.01461 c 0.651559,-0.336765 -1.145322,-1.349529 -1.304681,-2.014931 -0.927347,-1.189763 -1.614255,-2.616634 -2.822333,-3.555639 -1.348723,0.158191 -1.09602,2.822138 -0.212919,3.654968 0.684816,1.158695 2.190087,1.340707 2.973486,2.142961 0.457911,0.02702 0.893715,-0.268318 1.366447,-0.227359 z m 4.261316,-4.590155 c -0.291937,-0.829743 -1.188946,-2.253448 -1.899794,-2.229756 0.622971,0.460531 1.033459,1.66128 1.177732,1.900461 0.668907,-0.06648 0.852478,2.968306 0.933491,1.205712 -0.04555,-0.29741 -0.11784,-0.590553 -0.211429,-0.876417 z m -4.076876,-0.627615 c -0.272792,-0.371787 -0.636621,0.520154 -1.000882,0.228164 0.135848,0.563789 1.264101,0.386715 1.000882,-0.228164 z m 23.020426,2.751477 c -0.698105,-1.159674 -0.274786,-1.800854 0.529139,-1.248675 -0.456144,-0.779286 -0.03126,-1.527298 0.448313,-0.459998 0.504395,0.495177 0.897658,2.834924 -0.10175,1.374968 -0.584844,-0.964143 0.351492,2.307013 -0.68626,0.700844 l -0.09318,-0.170354 -0.09626,-0.19678 z" />
      <path
         id="path20655"
         style="fill:#b5a88e;stroke-width:0.32"
         d="m 41.751455,77.023091 c -0.768018,-0.74414 -1.650686,-2.514563 -2.517247,-2.461281 -0.301741,1.202593 -0.581361,2.594796 -1.783949,3.237313 -1.834845,1.020224 -4.072356,0.945596 -6.091043,0.683352 -1.333344,-0.483884 -2.532203,-1.447968 -3.337564,-2.611 -0.809637,-1.734496 -0.47872,-3.836237 0.305022,-5.52183 1.098163,-1.270492 -0.840859,2.384668 0.334627,0.624179 0.177824,-1.249311 0.993658,-2.545523 2.474246,-2.331184 1.003572,-0.876217 2.470686,-0.627497 3.674392,-0.23601 1.417183,0.09468 2.102949,1.804101 3.414237,1.788595 1.288542,-0.840356 2.400566,-1.948388 3.723103,-2.756997 1.55173,-0.998996 3.079196,-2.094025 4.804851,-2.770946 1.121663,0.535117 1.624665,1.940572 2.425144,2.87632 0.807233,0.981757 1.539982,2.133368 2.659463,2.774099 0.666599,-0.391755 1.111965,-0.924422 1.178123,0.239951 0.526395,0.675017 1.292019,2.970698 2.258535,2.110845 -0.350083,1.222787 1.130071,2.224729 1.884993,3.156871 0.597408,0.748605 -0.831949,2.767693 0.420846,2.631606 -1.177233,0.879705 -2.222237,-1.339583 -3.16914,-1.929438 -0.916727,-1.348342 -2.667538,-1.493408 -3.848241,-0.39269 -2.014299,1.267257 -3.905526,2.770156 -6.06525,3.781274 -1.097403,-0.732916 -1.890675,-1.894752 -2.745148,-2.893029 z m -7.550856,0.433271 c -0.509757,-0.608104 -0.845607,-1.551765 -1.568014,-2.21086 -0.206597,-0.544148 -0.683147,-0.918845 -0.783818,-1.592601 -1.006287,-0.08564 -1.405469,-2.040372 -2.514452,-2.518644 -1.302397,0.862847 -0.971264,3.181446 0.104955,4.22275 0.867913,1.004604 2.209786,1.563604 3.244928,1.908054 0.573294,-0.280203 1.543053,0.767367 1.800684,0.270894 l -0.284279,-0.0796 z m 3.922722,-3.919823 c 0.05536,-1.189915 -1.105924,-2.6802 -1.81177,-2.813137 -0.19525,-1.432976 -2.480937,-1.176536 -3.664443,-1.30167 0.193155,0.284943 1.06452,0.897166 0.0051,1.245803 -1.183808,0.843113 0.143302,0.118038 0.652635,0.534339 -0.06742,0.484738 -1.076848,1.200105 0.130263,1.159611 1.186456,-0.565494 0.408999,0.654217 0.948873,1.014949 0.563621,-0.940663 2.345088,-1.103115 2.289058,0.359166 0.673417,0.355874 0.862129,0.977049 0.608276,1.688159 0.520278,-0.478079 0.817865,-1.184548 0.841962,-1.88722 z m 18.641197,1.034869 c -0.698105,-1.159674 -0.274786,-1.800854 0.529139,-1.248675 -0.456144,-0.779286 -0.03126,-1.527298 0.448313,-0.459998 0.504395,0.495177 0.897658,2.834924 -0.10175,1.374968 -0.584844,-0.964143 0.351492,2.307013 -0.68626,0.700844 l -0.09318,-0.170354 -0.09626,-0.19678 z" />
      <path
         id="path20653"
         style="fill:#a69575;stroke-width:0.32"
         d="m 41.804517,77.037701 c -0.818525,-0.979066 -1.564371,-2.057911 -2.56,-2.86123 -0.619893,0.947926 -0.153342,2.491686 -1.285788,3.251499 -1.780599,1.421518 -4.259201,1.291614 -6.403654,1.098317 -1.36368,-0.360554 -2.506792,-1.365615 -3.39248,-2.428353 -0.914464,-1.575549 -0.71956,-3.62468 -0.02638,-5.252109 0.490473,-1.128617 1.585635,-1.959716 2.82903,-2.015433 1.135624,-0.869544 2.607834,-0.788571 3.923771,-0.287014 1.501425,-0.02954 2.353575,2.395179 3.753159,1.409658 2.368398,-1.993884 5.004559,-3.657545 7.669759,-5.224079 1.32087,-0.337302 1.709782,1.834607 2.591042,2.579125 0.857191,1.007811 1.617614,2.217129 2.78682,2.873619 0.566528,0.105951 1.283071,-0.91533 1.200438,0.218592 1.139387,2.213104 3.086869,3.868284 4.411788,5.952145 -0.540441,0.796935 -0.246355,1.916357 -0.179198,2.574834 -1.594398,-0.927797 -2.559296,-2.681091 -4.197828,-3.533049 -1.42298,-0.245569 -2.551713,0.94477 -3.71153,1.589481 -1.581057,1.003949 -3.115352,2.117425 -4.811579,2.916169 -1.017593,-0.781699 -1.77416,-1.882142 -2.597373,-2.862172 z m -7.422023,0.439853 c -1.000144,-1.184214 1.529635,-0.450584 1.697773,-1.28696 0.990284,0.175723 -0.08965,-0.754536 -0.643687,-0.279623 -0.586124,0.121469 -3.248724,-0.387108 -1.343778,-0.547796 1.189632,-0.897577 -1.502674,-0.552252 -0.970399,-1.485222 -0.585442,-0.992566 -0.713034,-0.303154 -0.553946,0.175977 -0.435327,-0.753546 -0.346993,-1.639039 -0.962498,-2.323713 0.493325,-0.719814 2.621579,-0.884101 1.16307,0.170315 0.06915,1.085661 2.070209,-0.23159 1.301445,1.285768 -0.111753,1.12001 2.130896,2.726981 2.085273,0.691465 -0.472681,-1.263627 -0.490448,1.326982 -1.212354,0.332884 -1.557091,-1.071003 2.220334,-2.012135 1.66507,-0.242785 0.767583,-0.01087 0.826147,1.797997 0.308129,1.133624 0.11906,-0.592501 -1.227992,-0.772133 -0.280973,-0.239718 0.374673,0.434768 0.100734,1.649763 0.8489,0.575932 1.651871,-2.2886 -0.429029,-5.987951 -3.223209,-5.890331 -1.480428,0.03529 -3.309931,-0.397711 -4.406027,0.887781 -0.263683,0.416702 -1.899803,1.600403 -1.025264,0.39414 0.281933,-0.514202 1.444622,-1.370567 1.351669,-1.598755 -1.317534,0.532863 -2.086873,1.872924 -1.780881,3.282975 0.0603,3.00434 3.116337,5.444627 6.042696,5.022401 l -0.06101,-0.05836 z m -3.4832,-4.640665 c -0.248917,-0.62593 -0.9013,-2.599615 0.423604,-1.992766 -0.675473,-0.832758 -0.418468,-0.661167 0.36062,-0.689471 0.09496,-0.70115 1.760558,-0.562924 0.817993,0.06171 0.144448,0.507882 -1.139619,0.288364 -1.102197,1.153434 -0.455753,0.755818 -0.298945,1.126651 0.325203,1.150131 0.04243,0.445449 -0.576686,0.755079 -0.825223,0.316959 z m -1.241111,-1.537077 c 0.08007,-1.711897 1.343425,1.187097 0,0 z m 9.089365,3.709757 c -0.696193,0.30148 -2.10782,2.438211 -0.772483,0.997829 0.268428,-0.304202 0.67874,-0.587309 0.772483,-0.997829 z m 5.456969,-5.331868 c -1.199335,-1.33444 -0.884935,1.165556 0,0 z m 12.544286,4.697281 c -0.466324,-0.874717 -0.480058,-1.89065 0.567042,-0.889653 -0.230928,-0.670921 -0.100643,-1.840571 0.461699,-0.626307 0.355906,0.539683 0.832401,2.70769 -0.183262,1.256498 -0.599415,-0.762614 0.422723,2.335092 -0.583821,0.858293 -0.103359,-0.192078 -0.187235,-0.394024 -0.261658,-0.598831 z" />
      <path
         id="path20651"
         style="fill:#948e87;stroke-width:0.32"
         d="m 41.804517,77.037701 c -0.818525,-0.979066 -1.564371,-2.057911 -2.56,-2.86123 -0.619893,0.947926 -0.153342,2.491686 -1.285788,3.251499 -1.780599,1.421518 -4.259201,1.291614 -6.403654,1.098317 -1.367493,-0.363916 -2.518805,-1.370102 -3.402784,-2.4412 -0.788422,-1.352639 -0.707855,-3.078998 -0.331364,-4.552245 0.479734,-1.174537 1.511566,-2.312961 2.605603,-2.796011 -0.563878,1.495315 1.267335,-0.571249 1.899122,-0.446871 1.917331,-0.294566 3.967382,0.435102 5.236515,1.902925 1.395247,0.14322 2.227992,-1.538085 3.450283,-2.074195 1.863502,-1.244019 3.690687,-2.589337 5.711557,-3.560989 1.083413,0.756828 1.537594,2.117702 2.429773,3.073733 0.855083,0.877602 1.523869,2.263334 2.770747,2.554853 0.872518,-0.695309 0.898308,-0.133398 1.191378,0.652061 1.18791,1.990615 2.938291,3.572113 4.18612,5.51409 -0.540441,0.796935 -0.246355,1.916357 -0.179198,2.574834 -1.594398,-0.927797 -2.559296,-2.681091 -4.197828,-3.533049 -1.42298,-0.245569 -2.551713,0.94477 -3.71153,1.589481 -1.581057,1.003949 -3.115352,2.117425 -4.811579,2.916169 -1.017593,-0.781699 -1.77416,-1.882142 -2.597373,-2.862172 z m -6.881637,0.161973 c 1.375582,-0.609935 2.942598,-1.46915 3.183712,-3.197795 0.243713,-2.411238 -1.90422,-4.452455 -4.218355,-4.622251 -1.364098,-0.209982 -2.714488,0.193009 -3.995084,0.582576 0.433152,-1.257312 -1.794962,0.541822 -1.47028,1.335944 -0.242797,1.89012 0.337061,4.016231 2.035432,5.07489 1.212724,0.78565 2.829924,1.638873 4.27193,0.999999 l 0.192645,-0.173366 z m -2.055467,-3.876596 c -0.847731,-0.690533 -1.521895,-2.022294 0.05083,-2.33106 1.166635,0.02218 -1.196644,1.448471 0.495099,1.442103 0.959242,-0.419238 1.00917,0.449109 0.370207,0.877165 0.458152,0.479733 0.686911,1.796848 -0.198944,0.787987 -0.254595,-0.243879 -0.490909,-0.506092 -0.717194,-0.776195 z m -4.332719,-1.894266 c -0.105978,-0.922946 1.924705,-1.985715 0.828504,-0.536776 -0.18561,0.141702 -0.608091,0.750523 -0.828504,0.536776 z m 10.212854,3.580757 c -0.696193,0.30148 -2.10782,2.438211 -0.772483,0.997829 0.268428,-0.304202 0.67874,-0.587309 0.772483,-0.997829 z m 5.456969,-5.331868 c -1.199335,-1.33444 -0.884935,1.165556 0,0 z m 12.544286,4.697281 c -0.466324,-0.874717 -0.480058,-1.89065 0.567042,-0.889653 -0.230928,-0.670921 -0.100643,-1.840571 0.461699,-0.626307 0.355906,0.539683 0.832401,2.70769 -0.183262,1.256498 -0.599415,-0.762614 0.422723,2.335092 -0.583821,0.858293 -0.103359,-0.192078 -0.187235,-0.394024 -0.261658,-0.598831 z" />
      <path
         id="path20649"
         style="fill:#867668;stroke-width:0.32"
         d="m 41.804517,77.045667 c -0.856773,-1.00798 -1.609006,-2.190657 -2.63582,-2.999922 -0.486568,1.12012 -0.114158,3.026473 -1.639943,3.51866 -0.813091,-0.362512 -0.592119,0.983396 -1.642669,0.824292 -2.433658,0.523507 -5.406587,0.384945 -7.128758,-1.663246 -0.950701,-0.872296 -1.318403,-2.157735 -1.190633,-3.418163 0.05784,-0.856174 0.06084,-2.018163 0.795759,-2.533836 -0.581359,1.462441 -0.481606,3.099655 0.551936,4.351231 2.103275,3.2103 7.408668,3.35222 9.697154,0.292274 0.402854,-1.278815 -1.116173,0.816896 -1.517416,0.953402 -0.514841,0.510225 -1.414257,0.685104 -0.474019,-0.06519 1.215601,-0.937414 1.985923,-2.624142 1.257115,-4.09511 -1.076778,-2.895723 -4.95672,-3.692797 -7.465007,-2.224129 -0.677533,0.261547 -1.16948,1.137665 -1.708332,1.365286 0.911696,-2.015102 3.317204,-3.070003 5.452504,-2.937258 1.636383,-0.07836 2.66038,1.447006 4.017655,1.941196 1.259892,-0.790978 2.299264,-1.930945 3.589645,-2.709533 1.610379,-1.065165 3.200571,-2.20417 4.973381,-2.983831 1.096302,0.637178 1.459946,2.246571 2.433588,3.140582 0.918901,0.908544 1.705891,2.760005 3.261965,2.312923 0.853633,0.773477 1.449912,2.267325 2.395032,3.204051 0.605199,1.158693 2.75825,2.307475 1.847462,3.730814 -0.850481,0.421705 0.338282,2.043184 -0.710419,0.981023 -0.786685,-0.58296 -0.346013,-1.386662 -1.361258,-1.412857 -0.902026,-1.110902 -2.149749,-2.337029 -3.489852,-0.963153 -2.194232,1.3694 -4.266401,2.950699 -6.566946,4.140003 -1.172905,-0.521308 -1.90064,-1.810708 -2.742124,-2.749512 z m 2.11,-7.064021 c 1.588221,-1.195848 -1.771935,-0.62478 -0.786821,0.317961 0.286441,-0.03875 0.534472,-0.191193 0.786821,-0.317961 z M 56.71438,74.10581 c -0.278042,-0.625149 -0.286711,-1.747334 0.188717,-0.617567 0.816851,0.146142 -0.184944,-2.11549 0.652604,-0.721366 0.339267,0.534274 1.207383,2.872553 0.06287,1.333563 -0.567071,-0.788865 0.246615,2.017867 -0.668605,0.554481 -0.09383,-0.175996 -0.169755,-0.361028 -0.235583,-0.549111 z M 32.867413,73.323078 c -0.847731,-0.690533 -1.521895,-2.022294 0.05083,-2.33106 1.218136,0.0711 -1.117676,1.16237 0.282645,1.442585 0.675947,-0.199744 1.626473,0.24234 0.508635,0.613936 0.148844,0.456003 1.031844,2.137339 -0.124919,1.050734 -0.254595,-0.243878 -0.490912,-0.506093 -0.717193,-0.776195 z" />
      <path
         id="path20647"
         style="fill:#756f67;stroke-width:0.32"
         d="m 42.208607,77.454745 c -1.022596,-1.169181 -1.90586,-2.504856 -3.102301,-3.493641 -0.880285,0.671164 -1.183304,2.449763 -2.462907,2.622939 1.250828,-1.282439 2.017004,-3.2584 1.012209,-4.930311 -1.528311,-2.924817 -5.864638,-3.193243 -8.210726,-1.126288 -1.20213,0.662558 0.658311,-0.907699 1.109965,-1.104217 1.696947,-1.258183 4.180077,-1.481808 5.897615,-0.137948 0.762803,0.718183 1.801095,1.747676 2.612815,0.445295 2.169335,-1.873356 4.6068,-3.437915 7.122454,-4.803779 1.526412,-0.47964 1.827959,1.918131 2.825054,2.675217 0.971226,1.083846 1.852557,2.763651 3.48694,2.693771 0.907575,1.234192 1.739854,2.564602 2.821809,3.684887 1.007447,1.039709 2.200831,2.260722 1.009126,3.677233 -0.0088,0.684303 0.495445,1.130007 -0.350623,0.39381 -0.648163,-0.414123 -0.672191,-1.468322 0.02417,-0.414582 -0.132814,-0.690406 -0.21163,-1.61176 -0.992883,-0.821388 -1.269486,-0.215268 -1.881621,-3.070163 -3.289117,-1.582555 -1.217118,0.227657 -1.852438,1.270347 -2.97021,1.9237 -1.421756,0.957078 -2.802156,2.013727 -4.346622,2.760813 -0.822872,-0.728856 -1.485687,-1.62811 -2.19677,-2.462956 z m 12.713645,-2.013379 c -0.0011,-0.435023 -1.133474,0.347321 -0.612016,-0.533691 -0.773598,0.06958 -1.452845,-2.874134 -1.408477,-1.20981 0.276401,0.664932 1.129835,2.710093 2.020493,1.743501 z m -4.118655,-1.283665 c 0.470455,-1.766532 -1.527034,0.450529 -2.33609,0.415261 -0.365127,0.982182 2.060134,-0.48935 2.33609,-0.415261 z m -2.42853,-1.44 c 0.915514,-1.498531 -1.437996,1.407048 -0.358149,0.491168 l 0.168725,-0.232147 z m -2.452929,-1.371428 c -0.100388,-0.64896 -1.587479,0.0413 -0.437621,0.251428 l 0.244971,-0.07386 z M 44.180874,69.86619 c 0.658662,-1.979441 -2.683772,0.960718 -0.370819,0.299126 l 0.198068,-0.130554 0.172746,-0.168572 z m -13.576357,8.285418 c -1.208527,-0.796688 -2.529061,-1.804966 -2.949839,-3.253959 -0.09636,-1.240368 -0.249725,-2.663941 0.36765,-3.783569 -0.171874,1.458999 -0.08799,3.375311 1.182627,4.529127 2.084865,2.30052 5.885207,2.599187 8.408979,0.889415 0.62684,-0.361733 1.847215,-2.694005 1.260413,-0.713001 -0.377551,1.734937 -2.316881,2.476102 -3.892731,2.710283 -1.447995,0.167213 -3.013125,0.209331 -4.377099,-0.378296 z M 56.715823,74.10995 c -0.309343,-0.618791 -0.478762,-1.911884 0.133753,-0.572348 0.415496,0.452736 0.594061,2.399261 0.0042,0.943512 l -0.06748,-0.175319 z M 32.894075,73.271688 c -1.023489,-0.678985 -1.295675,-2.311307 0.28743,-2.263008 -0.635017,0.675498 -0.472839,2.352269 0.719212,1.434273 1.065655,-0.0063 -0.850705,0.80063 0.04384,1.357448 1.046394,2.046032 -0.784346,-0.219773 -1.050485,-0.528713 z m 24.818331,0.875802 c -0.50069,-0.567371 -0.383479,-2.043671 0.134323,-0.672563 0.325113,0.48595 0.528052,1.830915 -0.134323,0.672563 z" />
      <path
         id="path20645"
         style="fill:#726455;stroke-width:0.32"
         d="m 42.215309,77.437701 c -1.129414,-1.323436 -2.153708,-2.743778 -3.315506,-4.03216 -0.323904,0.926656 -0.717818,2.675382 -1.895949,2.949797 0.907317,-1.222793 1.662042,-2.949903 0.774077,-4.460647 -1.137179,-2.361653 -4.200656,-3.370047 -6.578328,-2.352672 -0.785211,0.128755 -1.938906,1.212359 -2.246593,1.239105 1.119233,-1.370865 2.876138,-2.19784 4.617482,-2.383412 1.600995,-0.02369 3.008298,0.888506 4.133978,1.943935 1.403605,0.05043 2.332541,-1.816959 3.655314,-2.368162 1.666505,-1.127219 3.286788,-2.365648 5.103368,-3.241663 1.369904,0.127152 1.512166,1.990869 2.446407,2.785491 0.989977,0.958091 1.769494,2.746142 3.331374,2.675504 1.172278,0.929461 1.731371,2.548259 2.850911,3.609066 0.70881,0.958434 2.586567,2.35655 1.031237,3.433668 -0.443961,-0.486374 -0.72051,-1.069173 -1.319953,-0.418499 -0.639015,-0.34474 -1.445286,-1.504351 -0.232544,-0.670902 1.411906,-0.05374 -0.710871,-1.909753 -1.133274,-2.459532 -0.834976,-1.684604 -0.548263,1.559332 -1.7855,1.508116 -1.405945,0.666515 -2.541391,1.783261 -3.877557,2.579608 -1.102454,0.725462 -2.17746,1.50226 -3.331064,2.143368 -0.828753,-0.739086 -1.505032,-1.640079 -2.22788,-2.480009 z m 8.588288,-3.28 c 0.470455,-1.766532 -1.527034,0.450529 -2.33609,0.415261 -0.365127,0.982182 2.060134,-0.48935 2.33609,-0.415261 z m -2.42853,-1.44 c 0.915514,-1.498531 -1.437996,1.407048 -0.358149,0.491168 l 0.168725,-0.232147 z m -2.627459,-1.211428 c 0.400186,-1.142522 -1.560082,0.325837 -0.266586,0.290571 l 0.127174,-0.130821 z m 6.45691,-0.194336 c -0.255087,-0.940065 -1.642283,-0.306656 -0.500981,0.237311 0.185783,0.109517 0.521315,0.01469 0.500981,-0.237311 z m -6.226842,-1.015526 c 0.513287,-1.26333 -1.434099,0.938374 -0.106659,0.132517 l 0.106655,-0.132517 z m -1.766741,-0.466443 c 1.069085,-1.893061 -2.560445,0.486831 -0.641419,0.431293 0.248507,-0.07985 0.473875,-0.230847 0.641419,-0.431293 z M 30.60523,78.133572 c -1.721215,-0.779042 -3.062282,-2.475959 -3.002935,-4.423636 -0.03435,-0.611605 0.0232,-2.342353 0.259773,-0.832235 0.298149,1.669573 1.247888,3.309266 2.888884,3.954297 1.730304,0.813725 3.812126,1.159191 5.628583,0.418338 1.048156,0.446262 -0.830922,1.680905 -1.616753,1.365151 -1.387221,0.0298 -2.847978,0.02778 -4.157552,-0.481915 z m 6.559287,-0.935871 c 0.474149,-0.635683 1.465269,-1.648935 1.839566,-2.133865 -9.15e-4,0.599953 -1.399477,3.68334 -1.839566,2.133865 z m 19.555556,-3.075556 c -0.363205,-0.695377 -0.228027,-1.663923 0.174347,-0.452897 0.371062,0.631061 0.392986,2.019307 -0.0998,0.656906 z M 32.894075,73.271688 c -1.023489,-0.678985 -1.295675,-2.311307 0.28743,-2.263008 -0.886689,0.955903 -0.162279,2.057417 0.988256,1.668404 -1.205549,0.2731 0.910344,2.695903 -0.48872,1.505653 -0.275892,-0.291638 -0.533773,-0.599697 -0.786966,-0.911049 z m 24.818331,0.875802 c -0.50069,-0.567371 -0.383479,-2.043671 0.134323,-0.672563 0.325113,0.48595 0.528052,1.830915 -0.134323,0.672563 z" />
      <path
         id="path20643"
         style="fill:#675849;stroke-width:0.32"
         d="m 41.689833,76.773657 c -0.961034,-1.255322 -2.025781,-2.476803 -2.692148,-3.92 -0.271885,-0.984459 -0.144555,1.406286 -0.518767,1.745072 0.06168,0.586132 -1.317051,2.106545 -0.764125,0.766705 1.262476,-1.842386 0.05188,-4.47813 -1.759105,-5.469339 -1.767846,-1.130209 -4.067686,-0.910126 -5.813135,0.146814 -1.708749,0.919033 0.315961,-0.706346 0.900593,-0.928008 2.075857,-1.194336 4.825064,-0.674965 6.440606,1.054454 1.319874,0.787814 2.296152,-1.532828 3.546807,-1.940779 1.786416,-1.228525 3.558861,-2.508032 5.482774,-3.511696 1.431789,0.259767 1.493929,2.257392 2.564827,3.103422 0.934737,1.190279 2.337059,2.288142 2.37129,3.91637 0.850999,-0.225093 0.539981,0.729395 1.2801,1.064746 0.132977,1.350079 -0.815309,2.880828 -2.347126,2.303039 -1.06371,-0.08114 1.104875,1.479298 -0.384002,0.826882 -1.114818,0.885077 -2.441087,1.997549 -3.740903,2.834529 -0.901953,0.629208 -2.092384,1.791087 -2.731078,0.228279 -0.621997,-0.73199 -1.231753,-1.474305 -1.836608,-2.22049 z m 8.537542,-2.333851 c 1.277229,0.410289 0.780223,-0.942162 1.626664,-1.477156 -1.26711,0.164675 -2.382739,1.018437 -3.441568,1.71 0.104988,1.449488 1.156568,-0.371525 1.814904,-0.232844 z m -1.612952,-1.882298 c 0.512746,-0.922401 -1.852842,-2.233018 -0.906097,-0.75938 1.106355,0.725739 -1.197049,1.495355 0.287494,1.719573 0.54226,0.05283 0.617355,-0.567941 0.618603,-0.960193 z m -2.569906,-1.261747 c 0.449818,-0.316188 1.14705,-1.196035 0.174,-0.824933 -0.04698,-0.846512 -0.79199,-1.027107 -0.831046,-0.139187 -0.696394,0.399848 -1.533646,1.481682 -0.171532,1.530778 0.324395,-0.103421 0.565531,-0.363205 0.828578,-0.566658 z m -1.019205,-1.011707 c -0.238457,-0.662663 -2.316628,1.666347 -0.603581,0.538905 0.219718,-0.154993 0.44722,-0.315134 0.603581,-0.538905 z m -1.006966,-0.160589 c 1.25527,-0.626426 -0.170976,-1.885549 -0.783094,-0.595905 -1.168872,1.033387 0.01978,0.840959 0.783094,0.595905 z M 30.29398,77.907564 c -1.762227,-0.875574 -2.904725,-2.808711 -2.686391,-4.783988 -0.04994,-0.714441 0.125665,-1.334097 0.254479,-0.245875 0.325759,2.109172 1.887688,3.999532 4.007824,4.468674 1.465485,0.410561 3.078906,0.487527 4.509643,-0.09604 1.099184,0.83516 -1.463923,1.648028 -2.341,1.374114 -1.278153,0.02804 -2.62222,-0.03077 -3.744555,-0.716886 z m 6.870537,-0.698604 c 0.506852,-0.634808 1.489304,-1.806403 1.889821,-2.236902 -0.117694,0.744465 -1.067008,3.243498 -1.889821,2.236902 z m 18.212897,-1.375587 c -1.189879,-1.402877 -2.2404,-2.952555 -2.920952,-4.664172 -0.870566,-0.212585 -0.495111,-1.369964 0.173385,-0.4054 1.272209,1.487458 2.344194,3.144844 3.709795,4.551553 0.722269,0.72952 0.166041,2.065089 -0.641052,0.861387 l -0.160466,-0.165725 z m 1.342659,-1.711228 c -0.363205,-0.695377 -0.228027,-1.663923 0.174347,-0.452897 0.371062,0.631061 0.392986,2.019307 -0.0998,0.656906 z M 32.919281,73.302771 c -0.913606,-0.476015 -1.290353,-2.700438 -0.05066,-1.79427 -1.094669,1.081338 0.944245,1.165263 1.311448,1.185305 -1.449157,0.20108 0.966624,2.709538 -0.490504,1.496558 -0.270174,-0.283896 -0.523183,-0.583589 -0.770287,-0.887593 z M 57.40678,73.121736 c -0.09979,-1.434127 1.06543,1.387828 0.112085,0.50565 l -0.07127,-0.227654 -0.04082,-0.277996 z" />
      <path
         id="path20641"
         style="fill:#585048;stroke-width:0.32"
         d="m 41.689833,76.773657 c -0.961034,-1.255322 -2.025781,-2.476803 -2.692148,-3.92 -0.268407,-0.997877 -0.133588,1.346214 -0.514239,1.581899 -0.01132,0.545128 -1.348473,2.499682 -0.823641,0.970695 1.261668,-1.450743 0.393136,-3.678902 -0.870972,-4.837476 -1.354282,-1.318362 -3.358883,-1.658633 -5.169317,-1.3523 -0.738627,-0.05194 1.286013,-0.545888 1.657245,-0.653813 1.541307,-0.472638 3.010924,0.672594 4.169274,1.548742 1.04379,1.581194 1.87384,-0.996798 2.917263,-1.3917 1.883879,-1.437233 3.879696,-2.747036 5.981877,-3.839626 1.451294,-0.08505 1.641924,1.888795 2.52923,2.70554 0.724736,1.026413 1.794822,1.809376 2.377279,2.922406 -0.378919,0.28261 -1.061568,1.232277 -0.05293,0.838499 -0.519146,0.553659 -0.629802,0.957835 0.212332,1.024515 -0.628559,1.306601 -2.47278,1.482496 -3.170261,2.79305 -0.3829,1.031748 1.991382,-0.671792 1.918025,0.763676 -1.334448,1.317117 -3.055101,2.182693 -4.587953,3.254504 -0.762248,0.732688 -1.546425,0.907344 -2.045142,-0.188135 -0.6216,-0.732128 -1.231163,-1.474425 -1.835923,-2.220476 z m 7.168216,-3.554061 c -0.05915,-0.745776 1.984141,-1.456438 0.249139,-1.324274 -0.438503,-0.630694 -1.596744,-0.98909 -1.454103,-2.109172 -0.707531,1.138062 -1.075138,-1.26225 -2.047785,-0.09705 -0.546812,0.426831 -2.921156,1.492793 -1.371703,0.25254 0.963072,-1.884443 -2.003913,-0.631438 -1.4634,0.574477 -0.412577,0.451905 -0.917203,-1.030001 -0.680996,0.135409 0.676872,0.978656 2.394172,-0.110962 2.688033,1.340439 1.05031,-0.09977 2.510107,-1.94714 3.071607,-0.02638 0.194028,0.643219 -1.099324,1.677579 0.374569,1.552127 0.156783,-0.02872 0.716149,0.01488 0.634639,-0.298113 z M 46.907626,72.21037 c -1.469786,-0.705005 -0.04898,1.60812 0,0 z m 1.93306,-2.772669 c 0.47339,-0.876026 -1.41622,-1.557215 -0.757583,-0.475461 0.180666,0.231469 1.04647,1.798718 0.757583,0.475461 z m -18.795868,8.258241 c -1.574623,-0.863312 -2.608257,-2.590075 -2.44524,-4.40235 -0.04279,-0.74344 0.102969,-1.56965 0.257412,-0.407142 0.224107,1.920193 1.565698,3.574928 3.365105,4.255012 1.575947,0.883839 3.382775,0.251767 5.063142,0.454438 0.640517,1.189716 -1.923085,1.019972 -2.764242,1.041801 -1.238891,0.06111 -2.460773,-0.200409 -3.476177,-0.941759 z m 7.119699,-0.486982 c 0.506852,-0.634808 1.489304,-1.806403 1.889821,-2.236902 -0.117694,0.744465 -1.067008,3.243498 -1.889821,2.236902 z m 18.480001,-1.097122 c -0.407828,-0.495432 -0.662987,-1.433803 -1.133839,-1.142328 -0.401996,-1.284376 -1.29876,-2.498108 -1.974489,-3.680139 -0.663511,-0.498661 -0.321927,-1.184588 0.237783,-0.314729 1.227573,1.410549 2.256238,2.991078 3.559272,4.335632 0.463877,0.631224 0.704018,2.243607 -0.688727,0.801564 z m -3.839635,-1.684176 c 0.329442,-0.812227 -0.863101,-0.148947 -0.05504,-1.007231 0.658158,-1.232178 1.320191,-0.645501 0.7795,0.400249 -0.0033,0.61683 -0.908049,2.005186 -0.724463,0.606982 z m 4.91519,-0.305517 c -0.363205,-0.695377 -0.228027,-1.663923 0.174347,-0.452897 0.371062,0.631061 0.392986,2.019307 -0.0998,0.656906 z M 33.066415,73.450966 c -0.767904,-0.453655 -1.428596,-2.790643 -0.198038,-1.942967 -1.169512,1.151487 1.136899,1.108623 1.300527,1.19343 -1.359913,0.387458 -0.131566,1.207325 0.06888,1.929669 -0.506859,-0.224552 -0.810442,-0.776009 -1.17137,-1.180132 z m 24.340365,-0.32923 c -0.09979,-1.434127 1.06543,1.387828 0.112085,0.50565 l -0.07127,-0.227654 -0.04082,-0.277996 z" />
      <path
         id="path20639"
         style="fill:#554737;stroke-width:0.32"
         d="m 41.869962,76.957701 c -1.115992,-1.458021 -2.336003,-2.898216 -3.015356,-4.617645 0.08354,0.78747 -0.400288,3.082238 -0.871112,2.769336 0.840677,-1.751785 -0.01236,-3.844129 -1.550166,-4.895123 -1.428639,-1.142196 -3.335883,-1.269564 -5.066185,-0.936189 -0.30201,-0.33211 2.006043,-0.701502 2.69176,-0.707042 1.458794,0.158627 2.823406,0.955588 3.850063,1.977535 1.340332,-0.227534 2.131414,-1.84096 3.364196,-2.476678 1.639615,-1.176517 3.322797,-2.343468 5.167975,-3.167399 1.347003,-0.229793 1.560652,1.96455 1.518473,2.297778 1.128847,0.06183 2.01231,1.703671 2.592123,2.652015 -0.930378,0.605186 -0.473681,-0.676437 -1.325099,-0.567201 -0.139791,-0.645195 -1.633224,-1.516557 -1.063053,-0.285933 0.644611,0.897374 1.591074,2.276927 2.659892,1.15107 0.926687,0.356625 -1.486489,1.799533 0.155491,2.085476 1.122877,0.431007 -1.128385,1.391732 -1.61917,1.838756 -0.655183,0.289549 -2.436371,2.222261 -0.696065,1.372372 1.327561,-0.768566 1.049795,0.557159 0.453801,0.84844 1.102564,-0.558676 0.775972,0.169037 0.06439,0.516035 -0.79646,0.411371 -1.93121,1.577522 -2.645311,1.325834 0.220958,-1.050534 -0.862678,1.296072 -1.513661,1.41869 -1.20128,0.872945 -1.898846,-1.487798 -2.791069,-2.15091 -0.121056,-0.149403 -0.24169,-0.299152 -0.361922,-0.449217 z m 4.734555,0.08 c -0.167229,-1.052631 -1.80747,0.742212 -0.280675,0.226 l 0.166009,-0.10175 z m 2.231048,-3.854486 c 0.02092,-0.714585 1.982443,-1.421644 0.271623,-1.287893 -0.438503,-0.630694 -1.596744,-0.98909 -1.454103,-2.109172 -0.703916,1.148917 -1.013073,-1.209604 -1.986614,-0.147277 -0.550488,0.276207 -2.859412,1.540662 -1.43102,0.31891 0.760495,-1.270736 -0.735223,-1.201709 -1.283258,-0.405593 -1.52702,0.685915 -1.251014,1.966248 0.292326,1.766729 0.54224,0.297242 1.359943,-0.746906 1.246253,0.400291 1.047056,1.118611 2.540571,-2.029228 3.278686,0.08167 0.390281,0.652713 -0.99721,2.123241 0.591785,1.810398 0.167129,-0.06014 0.562835,-0.166238 0.474322,-0.428068 z m -2.047047,-0.713514 c -0.567082,-1.030109 -0.937142,1.279096 0,0 z m -16.7437,5.226241 c -1.574623,-0.863312 -2.608257,-2.590075 -2.44524,-4.40235 -0.02375,-0.521371 0.05529,-1.665986 0.223794,-0.568525 0.188531,1.683505 1.087307,3.301769 2.64757,4.067238 1.38576,0.995058 3.121159,0.891893 4.732263,0.78958 0.942088,-0.289378 1.891622,0.385259 0.58369,0.811481 -1.529448,0.329646 -3.219763,0.420393 -4.71076,-0.125663 -0.360784,-0.15788 -0.698998,-0.361819 -1.031317,-0.571761 z m 7.119699,-0.292504 c 0.166157,-0.680204 2.224337,-2.362904 1.28889,-0.702348 -0.181067,0.304338 -0.981068,1.201088 -1.28889,0.702348 z m 18.880001,-1.041327 c -0.848807,-1.662578 -2.327188,-2.921419 -3.181694,-4.594981 -0.508465,-0.491803 -0.74259,-2.136743 -7.9e-5,-0.756836 1.035633,1.817495 2.82413,3.149305 3.6214,5.098812 0.05214,0.274206 -0.479735,1.013701 -0.439627,0.253005 z M 33.066415,73.450966 c -0.767904,-0.453655 -1.428596,-2.790643 -0.198038,-1.942967 -1.169512,1.151487 1.136899,1.108623 1.300527,1.19343 -1.359913,0.387458 -0.131566,1.207325 0.06888,1.929669 -0.506859,-0.224552 -0.810442,-0.776009 -1.17137,-1.180132 z m 18.705364,0.463206 c -0.176458,-0.856105 1.414835,-2.031826 0.86272,-0.462497 -0.03768,0.398807 -0.535351,1.05953 -0.86272,0.462497 z" />
      <path
         id="path20637"
         style="fill:#47392b;stroke-width:0.32"
         d="m 41.858,76.954452 c -1.239266,-1.604958 -2.604025,-3.243402 -3.031015,-5.279339 -0.360341,-0.921266 -0.161436,1.267666 -0.230534,1.713344 0.280922,0.712659 -0.980601,2.960929 -0.452663,1.171499 0.820996,-2.448471 -1.402922,-4.842729 -3.709521,-5.304525 -0.606894,-0.104946 -2.868334,-0.322867 -1.038053,-0.634519 1.80116,-0.177457 3.461452,0.831636 4.676214,2.062401 1.098376,-0.626095 1.949937,-1.900018 3.147586,-2.555353 1.441541,-0.990391 2.859528,-2.068204 4.474414,-2.758629 0.637151,0.123163 0.752313,-1.363585 1.376954,-0.316775 0.173005,0.760022 -0.116525,1.050843 0.71551,1.207479 1.055357,1.202843 1.927811,2.567696 3.018631,3.749054 0.604174,1.009722 -1.72817,2.618106 -2.081349,0.886727 -0.101338,-1.838185 -2.259339,-0.906334 -3.003489,-2.253691 -1.39106,-0.454169 0.866876,0.887509 -0.355301,1.07406 -0.569687,0.306549 -2.486052,1.286735 -1.079445,0.232735 1.024995,-1.023361 -0.566601,-1.456684 -1.144192,-0.580317 -1.259645,0.53737 -1.897642,1.490905 -0.630918,2.433454 0.969644,0.658196 -1.193517,1.152681 0.382173,0.929815 1.459456,-0.19993 2.686575,-1.087507 4.046917,-1.552571 1.15961,0.329863 0.730121,1.532977 0.628029,2.310102 0.420715,0.558795 1.445363,0.184682 0.6239,0.903736 0.171987,1.513563 -1.834634,1.905456 -2.707336,2.639442 0.09735,0.960829 1.801072,0.67262 1.825313,0.870739 -1.154103,0.578986 -2.670331,2.697505 -3.758373,1.015534 C 42.952715,78.294571 42.401318,77.626867 41.858,76.954452 Z m 4.9001,-2.644484 c -1.178742,-1.027563 -0.100396,0.858058 0.242464,0.323067 l -0.09522,-0.138052 z m 0.04598,-2.160706 c -0.897947,-0.463477 -2.031335,1.838041 -0.498749,0.96695 0.261255,-0.200506 0.750121,-0.591896 0.498749,-0.96695 z m 3.38523,-1.544352 c 0.631724,-0.988803 -1.058279,-1.277234 -1.051305,-1.524317 0.113936,-1.028138 -1.593282,-2.751084 -2.438928,-1.765979 0.286152,0.913636 0.602158,1.954758 1.572086,2.166616 0.577066,0.311554 1.14664,2.075658 1.918147,1.12368 z m -20.144491,7.091032 c -1.574203,-0.862847 -2.609663,-2.590058 -2.440247,-4.40235 -0.02481,-0.669159 0.08535,-1.683174 0.223232,-0.409549 0.190212,1.648052 1.108111,3.235144 2.671185,3.920365 1.777767,0.924496 3.919114,1.250324 5.84183,0.611094 0.07331,1.405336 -1.945574,1.245476 -2.976491,1.220448 -1.185226,0.04805 -2.352254,-0.233881 -3.319509,-0.940008 z m 7.119699,-0.243278 c 0.06972,-0.832567 2.45026,-2.308984 1.171598,-0.673453 -0.280077,0.211036 -0.812918,0.919209 -1.171598,0.673453 z m 10.560001,-0.52163 c -0.187846,-1.357157 2.477539,-0.381857 0.855629,0.303724 -0.293143,0.184776 -0.872426,0.160854 -0.855629,-0.303724 z m 8.431836,-0.592658 c -0.06891,-1.182518 -1.648123,-1.861767 -2.178543,-2.971343 -0.483418,-0.502706 -1.245911,-1.897888 -0.144905,-0.707598 0.924654,0.987012 1.986428,1.916875 2.650069,3.097749 0.19384,0.219382 -0.676361,1.540968 -0.326621,0.581192 z m -23.251586,-3.14611 c -0.497984,-0.446606 -1.173657,-2.168244 0.03733,-1.829126 -1.458645,0.94468 0.876631,1.607839 1.216797,1.335759 -1.310944,0.335975 -0.152791,1.180652 -0.06478,1.77197 -0.51217,-0.282759 -0.833922,-0.832169 -1.189347,-1.278603 z m 16.25975,0.166827 c -0.144103,-0.973777 1.74965,-0.823488 2.174046,-0.75001 -0.34414,0.309693 -2.386037,2.178149 -2.174046,0.75001 z m 3.090526,0.158608 c -0.02654,-1.181139 0.512111,0.398415 0.04741,0.4475 l -0.03468,-0.168438 z M 52.5181,71.109968 c -1.022582,-2.0009 1.523577,1.575457 0,0 z" />
      <path
         id="path20635"
         style="fill:#362f26;stroke-width:0.32"
         d="m 41.925663,77.011328 c -1.479057,-1.857077 -3.067673,-3.907651 -3.239924,-6.359333 0.655201,-1.399749 2.150827,-2.17494 3.324494,-3.102224 1.188789,-0.722903 2.287921,-1.711184 3.630511,-2.112764 1.132247,0.311756 1.266502,2.331426 -0.256059,1.783006 -0.984368,0.324633 -0.20282,1.289283 0.374386,0.469955 0.928217,-0.07313 1.159014,0.652817 0.07166,0.517835 -0.810839,0.129257 -0.624899,0.859196 -0.1383,1.032947 -0.244365,0.55182 -2.070425,1.567608 -1.059284,0.354295 -0.03232,-1.764264 -1.712108,-0.165598 -2.317818,0.232705 -0.490304,-0.705721 -1.257496,1.558125 -0.109526,1.759905 0.829104,0.465021 0.692704,1.083653 -0.262607,1.153948 1.721295,0.202838 3.289297,-0.744395 4.749947,-1.524624 1.062213,-0.04179 1.593947,1.661444 0.391874,1.994779 1.463256,0.809727 0.914503,2.643966 -0.65,2.937493 -1.199669,0.493644 -2.382887,2.127113 -1.985723,3.224765 0.237164,-0.626352 2.097686,-1.053662 0.882288,-0.189779 -1.450797,1.292738 -2.377477,-1.245054 -3.299319,-2.040988 l -0.106642,-0.13191 z m 1.227277,-1.973627 c -0.191195,-0.748533 1.456521,-1.908252 -0.08332,-1.174255 -0.634516,0.444233 -2.796731,-1.312897 -1.640021,0.04922 0.664152,0.274665 1.369289,1.352813 1.770845,1.407536 l -0.04751,-0.2825 z m 4.06179,-0.32 c -0.376834,-0.700487 -1.686262,-1.568177 -0.298667,-1.975033 0.667986,-1.860913 -2.770417,0.179056 -1.039652,1.110153 0.101699,0.268136 1.803238,2.061337 1.338319,0.86488 z m -5.890213,-5.858885 c -1.000984,-1.454758 -0.218765,1.69788 0,0 z M 44.19525,68.0902 c 0.761396,-1.000216 -0.605464,-0.364346 -0.950733,0.07426 -0.948618,0.357358 0.835325,0.180069 0.950733,-0.07426 z m -14.150432,9.605742 c -1.574203,-0.862847 -2.609663,-2.590058 -2.440247,-4.40235 -0.02481,-0.669159 0.08535,-1.683174 0.223232,-0.409549 0.191473,1.625682 1.080741,3.199711 2.613358,3.898546 1.725548,0.911997 3.811544,1.2808 5.701005,0.683381 0.752153,0.722509 -1.347695,1.449338 -2.116413,1.17053 -1.394571,0.05677 -2.830489,-0.05967 -3.980935,-0.940558 z m 15.187083,0.175346 c 1.211253,-1.006307 0.491738,0.874268 -0.205547,0.294104 l 0.06921,-0.127583 z m -7.747384,-0.734395 c 0.0429,-0.778223 1.976806,-1.82799 0.8885,-0.509332 -0.211062,0.17517 -0.628518,0.759211 -0.8885,0.509332 z m 10.376128,-0.06057 c 0.479211,-0.669079 2.029536,-0.635652 0.735979,0.125406 -0.159578,0.108537 -0.971908,0.350397 -0.735979,-0.125406 z m 7.4133,-2.118626 c -1.176161,-1.623555 0.894203,0.164828 0.805261,0.8 -0.362425,-0.13184 -0.585868,-0.504672 -0.805261,-0.8 z M 32.83337,73.05153 c -0.541752,-0.417481 -1.029048,-2.050421 0.108725,-1.68839 -1.326544,0.648904 0.427146,1.596969 0.905357,1.41155 -0.897871,0.485863 0.74401,2.042795 -0.507599,0.8942 -0.176823,-0.19906 -0.34488,-0.405797 -0.506483,-0.61736 z m 5.611147,0.429741 c -0.270781,-1.651379 -1.369615,-3.374666 -3.013028,-3.930128 -0.732642,-0.426882 -2.578515,-0.336937 -2.74089,-0.72836 2.525373,-0.800589 5.314947,1.157013 5.994965,3.590803 0.279004,0.491443 -0.112841,2.630396 -0.241047,1.067685 z m 15.689268,0.04893 c -1.06178,-1.072468 1.115863,0.111513 0.398257,0.230799 l -0.17175,-0.09273 z m -5.658843,-3.0663 c -0.525034,-1.766031 1.54784,0.90814 0.234081,0.348747 l -0.133578,-0.157014 -0.100506,-0.191733 z m -1.390424,-3.986199 c 1.133879,-1.253687 1.26624,1.213299 0,0 z m -0.320001,-0.96 c -0.215061,-0.217796 -1.102355,-0.170094 -0.358495,-0.744837 0.752831,-0.238273 1.087573,1.497298 0.358495,0.744837 z" />
      <path
         id="path20633"
         style="fill:#2f261a;stroke-width:0.32"
         d="m 41.839449,76.890366 c -0.853584,-1.125095 -1.821251,-2.203391 -2.434932,-3.48092 -0.342619,-1.4439 -1.470361,-3.113973 0.323561,-4.098541 0.457528,-0.464472 1.006926,-1.006324 0.94999,-0.08769 0.740905,0.08588 2.729316,-2.066193 1.084538,-1.029783 -1.465664,0.518697 0.603485,-0.988597 1.082738,-1.193 0.89463,-0.39994 2.170103,-1.653106 2.847908,-1.562729 -0.3022,0.485088 1.317922,0.553813 0.220675,0.912157 -0.796965,0.06286 -1.545513,0.9812 -2.394779,1.497834 -0.809671,0.256686 -1.037337,1.255164 0.01796,0.564677 1.510139,-0.531966 -0.300353,1.089136 -0.976587,0.497696 -0.946601,0.569566 -1.388365,1.800274 -0.818604,2.990224 0.325732,-0.329859 1.145189,0.04688 0.418802,0.517048 -1.265349,0.544744 -0.799788,-0.918842 -1.301871,-1.337856 0.577616,-0.845367 0.0093,-1.691524 -0.95146,-1.167759 -0.389043,1.380636 1.344248,3.072287 2.758234,3.090844 1.612109,-0.10945 2.876992,-1.352273 4.431576,-1.604747 0.987539,0.41392 0.719216,1.324294 0.04176,1.819904 0.972518,0.866888 1.127223,2.246764 -0.358662,2.690069 -0.594396,0.513586 -1.046532,-1.157542 -1.001872,0.139109 -0.511336,1.430913 -1.688826,-0.324761 -1.451249,-1.133086 -0.614674,-0.285563 -1.407712,-0.59442 -0.378789,-1.078119 -0.172914,-0.578974 -2.284295,0.498031 -2.863515,-0.610017 -0.118688,0.684862 1.578777,1.829958 2.212659,2.609689 1.269255,0.936758 1.095102,2.578382 1.038741,3.960335 -0.732751,-0.512135 -1.687985,-1.996205 -2.496832,-2.905329 z m 5.141507,-2.670301 c -0.869432,-0.64245 -0.322402,-1.299002 0.06103,-1.867784 -0.307107,-1.313854 -2.069757,0.465102 -2.2629,1.051039 0.947008,0.04665 1.950899,2.467729 2.511,1.324431 -0.05739,-0.193936 -0.176318,-0.359568 -0.309126,-0.507686 z m -2.136439,4.737636 c 0.671089,-0.703506 1.295702,0.06142 0.286825,0.291753 -0.262711,0.01563 -1.007984,0.109442 -0.286825,-0.291753 z M 30.414848,77.893866 c -1.723331,-0.785711 -2.973959,-2.570809 -2.810277,-4.503488 -0.01642,-0.589936 0.05158,-1.908385 0.217975,-0.545877 0.165336,2.065723 1.663413,3.847224 3.628509,4.458651 1.438797,0.571749 3.039841,0.806031 4.515593,0.248633 0.266014,1.40368 -2.227362,1.058775 -3.244467,1.04081 -0.806518,-0.07448 -1.594033,-0.315783 -2.307333,-0.698729 z m 7.069669,-0.756973 c 0.0429,-0.778223 1.976806,-1.82799 0.8885,-0.509332 -0.211062,0.17517 -0.628518,0.759211 -0.8885,0.509332 z M 32.83337,73.05153 c -0.541752,-0.417481 -1.029048,-2.050421 0.108725,-1.68839 -1.326544,0.648904 0.427146,1.596969 0.905357,1.41155 -0.897871,0.485863 0.74401,2.042795 -0.507599,0.8942 -0.176823,-0.19906 -0.34488,-0.405797 -0.506483,-0.61736 z m 5.659094,0.509741 c -0.334015,-1.958565 -1.765341,-3.862974 -3.786396,-4.277831 -0.572624,-0.240196 -3.027847,-0.458222 -1.392986,-0.521414 2.060748,-0.178438 4.303124,0.877649 5.001432,2.925237 0.464028,0.215592 0.373578,3.333735 0.17795,1.874008 z M 44.3713,69.997893 c 0.490322,-0.590993 -0.181635,-3.061965 0.62283,-1.47258 0.846016,0.761116 -0.138006,1.617552 -0.756111,1.711312 z" />
      <path
         id="path20631"
         style="fill:#0a0604;stroke-width:0.32"
         d="m 41.776171,76.808447 c -1.267376,-1.633854 -2.536876,-3.356655 -2.973852,-5.420187 -0.146049,-0.460162 -0.631578,-1.245856 0.186339,-0.929814 0.372977,-1.277601 0.839592,1.322779 1.554922,1.506598 0.967723,1.203664 2.598495,1.562379 3.893565,0.690105 0.725766,0.270136 -1.258943,1.136157 -1.840253,0.969907 -0.708805,0.261279 -2.256966,-1.551454 -1.494115,-0.05619 0.931684,1.590403 2.663465,2.745002 3.082965,4.606828 0.113002,0.771585 0.004,1.972562 -0.665052,0.783017 -0.59247,-0.70777 -1.17054,-1.427467 -1.744519,-2.150266 z m -10.954222,1.342687 c -1.089153,-0.17942 -0.456056,-1.418233 -1.618573,-1.149792 -1.61436,-0.844606 -1.662565,-2.954549 -1.54819,-4.54695 0.129047,-0.612253 0.08603,1.416244 0.432695,1.82176 1.114555,2.492946 4.018884,3.811017 6.65272,3.632131 0.526154,-0.279809 2.002196,-0.527804 1.015769,0.353418 -1.293477,0.571159 -2.802321,0.323601 -4.162489,0.11976 -0.262491,-0.05679 -0.524381,-0.124334 -0.771932,-0.230327 z m 6.662568,-1.014241 c 0.0429,-0.778223 1.976806,-1.82799 0.8885,-0.509332 -0.211062,0.17517 -0.628518,0.759211 -0.8885,0.509332 z m 9.503914,-2.957166 C 46.28367,73.283868 47.288,72.268581 46.883607,71.32227 c 1.587139,0.649721 -0.518357,2.130414 0.832925,2.896606 0.932244,1.354949 -0.36399,0.942786 -0.728101,-0.03915 z M 33.413524,73.757701 c -0.420121,-0.327668 -1.026026,-1.885052 -0.173174,-0.710625 0.309325,0.287988 0.967478,1.756742 0.173174,0.710625 z m 5.07894,-0.175891 c -0.172678,-1.622649 -1.255721,-2.951091 -2.417713,-4.010364 0.514031,-0.542086 1.840254,1.234808 2.141656,1.997183 0.457624,0.508313 0.591967,2.517259 0.291013,2.22127 z m 6.245387,-4.117442 c -0.920343,-1.702328 1.198341,0.374113 0,0 z" />
    </g>
  </g>
</svg>
